<svg xmlns="http://www.w3.org/2000/svg" viewBox="0 0 458.73 229.96"><defs><style>.cls-1{fill:#fff100;}</style></defs><g id="Capa_2" data-name="Capa 2"><g id="RECOMENDACIONES_ATENCI_ON" data-name="RECOMENDACIONES ATENCI{ON"><path id="NOTA1" class="cls-1" d="M111.4,183.14c-2.59,2.43-3.53,6.05-4.09,9.65A227.26,227.26,0,0,0,87.38,172.4a1.35,1.35,0,0,0-2.51-.48A204.54,204.54,0,0,1,69,196.33a1.59,1.59,0,0,0-.32.75,1.4,1.4,0,0,0-.39,2.32l25,22.16a.1.1,0,0,0,.05,0,1.22,1.22,0,0,0,.82.67,3.29,3.29,0,0,0,4.88.82c2.92-2.24,6.08-6.71,5.88-10.83s-3.37-5.77-6.3-3.4a15.42,15.42,0,0,0-5.08,9.1L79,205.12a172.14,172.14,0,0,0,14.25-23.23q7,7,13.5,14.61a3.08,3.08,0,0,0,5.15,2.63c3.27-2.64,5-8.69,5.4-13C117.64,182.08,114.1,180.63,111.4,183.14ZM76.89,203.25l-5.77-5.13A207.23,207.23,0,0,0,86.2,175.21q2.52,2.28,5,4.65A168.36,168.36,0,0,1,76.89,203.25Z"/><path id="NOTA2" class="cls-1" d="M50.7,105.47a129.17,129.17,0,0,1-21.77-7.29,1.52,1.52,0,0,0-1.3,0,1.79,1.79,0,0,0-1.49,1.57c-2.69,12.9-5.69,25.71-8.47,38.59a13.2,13.2,0,0,0-6.29-4.92C7.79,132,.32,129.83,0,136.54c-.28,5.94,6.61,8,10.53,9.62,1.66.68,4.76,1.8,7,1.45a1.74,1.74,0,0,0,.68-.07A1.78,1.78,0,0,0,20.15,146c3-14.29,6.35-28.48,9.37-42.77a129,129,0,0,0,20.12,6.6C52.15,110.37,53.23,106.08,50.7,105.47Z"/><path id="NOTA3" class="cls-1" d="M129.29,25.81a1.85,1.85,0,0,0-.74-.38,251.17,251.17,0,0,1-39-12.6c-1.63-.68-2.58,1.3-2.08,2.74-3,13.84-6.13,27.71-8,41.8-3.68-3.48-7.85-6.4-12.87-6.16-4.17.21-8.09,3.41-4.38,7.72s9.74,8.85,15.29,9.26A5.85,5.85,0,0,0,79,68.11a2,2,0,0,0,3.1-1.57c.13-1.51.29-3,.46-4.51a1,1,0,0,0,.15-1.35c1.11-9.42,2.87-18.74,4.81-28a210.52,210.52,0,0,0,36.4,12.82l-6.06,27.91a21.55,21.55,0,0,0-12.35-5.64c-2.11-.19-4.74-.06-5.76,2.4-.94,2.27.16,5,1.41,6.78,3.34,4.87,10.21,6.9,15.48,7.18,1.81.1,3.86-.32,4.56-2.44a4.07,4.07,0,0,0-.07-2.8,1.15,1.15,0,0,0,.29-1.65c-.16-.21-.32-.41-.49-.61l10.5-48.3A2,2,0,0,0,129.29,25.81ZM88.37,28.68q1.18-5.52,2.38-11a251.66,251.66,0,0,0,36.68,11.68l-2.64,12.19A209.42,209.42,0,0,1,88.37,28.68Z"/><path id="NOTA4" class="cls-1" d="M419.46,190.92a1.07,1.07,0,0,0-.5-.25,169.17,169.17,0,0,1-26.12-8.44c-1.1-.46-1.73.87-1.4,1.84-2,9.26-4.1,18.54-5.34,28-2.47-2.33-5.25-4.29-8.61-4.13-2.8.14-5.42,2.28-2.93,5.17s6.51,5.92,10.23,6.2a4.26,4.26,0,0,0,1-.06,1.31,1.31,0,0,0,2.08-1c.08-1,.19-2,.3-3a.69.69,0,0,0,.1-.91c.74-6.31,1.92-12.54,3.22-18.74a140.59,140.59,0,0,0,24.37,8.58q-2,9.33-4.06,18.68a14.52,14.52,0,0,0-8.27-3.78c-1.41-.12-3.17,0-3.85,1.61s.11,3.33.94,4.54c2.24,3.26,6.84,4.62,10.36,4.81,1.21.06,2.58-.22,3.06-1.63a2.75,2.75,0,0,0-.05-1.88.77.77,0,0,0,.19-1.11l-.33-.4q3.52-16.17,7-32.34A1.33,1.33,0,0,0,419.46,190.92Zm-27.39,1.92q.8-3.69,1.6-7.38a167.53,167.53,0,0,0,24.55,7.82q-.89,4.08-1.78,8.16A140.67,140.67,0,0,1,392.07,192.84Z"/><path id="NOTA5" class="cls-1" d="M365.2,70.38c-2.6,2.42-3.54,6.05-4.1,9.64a225.79,225.79,0,0,0-19.93-20.38,1.34,1.34,0,0,0-2.51-.48,203.31,203.31,0,0,1-15.91,24.41,1.6,1.6,0,0,0-.32.75,1.4,1.4,0,0,0-.39,2.32l25,22.16.05,0a1.2,1.2,0,0,0,.82.66,3.28,3.28,0,0,0,4.88.82c2.92-2.23,6.08-6.7,5.88-10.82s-3.37-5.78-6.3-3.4a15.35,15.35,0,0,0-5.07,9.09L332.79,92.35A172.14,172.14,0,0,0,347,69.12q7,7,13.51,14.62a3.07,3.07,0,0,0,5.14,2.63c3.27-2.64,5.05-8.69,5.4-13C371.43,69.31,367.89,67.87,365.2,70.38Zm-34.52,20.1-5.77-5.12A206.42,206.42,0,0,0,340,62.44q2.52,2.3,5,4.65A168.36,168.36,0,0,1,330.68,90.48Z"/><path id="NOTA6" class="cls-1" d="M457.29,7.45A128.87,128.87,0,0,1,435.52.16a1.52,1.52,0,0,0-1.3,0,1.79,1.79,0,0,0-1.49,1.57C430,14.59,427,27.41,424.26,40.28A13.24,13.24,0,0,0,418,35.37c-3.59-1.4-11.06-3.56-11.37,3.14-.28,6,6.61,8,10.53,9.63,1.66.68,4.76,1.8,7,1.45a1.74,1.74,0,0,0,.68-.07,1.78,1.78,0,0,0,1.95-1.59c3-14.29,6.35-28.48,9.37-42.77a127.88,127.88,0,0,0,20.12,6.59C458.74,12.35,459.82,8.05,457.29,7.45Z"/></g></g></svg>