<svg xmlns="http://www.w3.org/2000/svg" viewBox="0 0 207.99 870.39"><defs><style>.cls-1{fill:#fff8f3;}.cls-10,.cls-11,.cls-2,.cls-3,.cls-4,.cls-5,.cls-6,.cls-7,.cls-8,.cls-9{fill:none;stroke:#fff;stroke-miterlimit:10;stroke-width:2px;}.cls-3{stroke-dasharray:8.3 8.3;}.cls-4{stroke-dasharray:9.37 9.37;}.cls-5{stroke-dasharray:9.48 9.48;}.cls-6{stroke-dasharray:13.68 13.68;}.cls-7{stroke-dasharray:13.49 13.49;}.cls-8{stroke-dasharray:14.16 14.16;}.cls-9{stroke-dasharray:11.08 11.08;}.cls-10{stroke-dasharray:9.49 9.49;}.cls-11{stroke-dasharray:10.63 10.63;}.cls-12{fill:#959ba1;}.cls-13{fill:#b9c1c7;}.cls-14{fill:#a8afb5;}</style></defs><g id="Capa_2" data-name="Capa 2"><g id="LENGUAJE"><g id="MENÚ"><path class="cls-1" d="M19.58,22.78V0h3.14l4.19,12.06H27L31.14,0H34.3V22.78H31V8.93H31l-3.24,9.79H26.11l-3.2-9.79h-.06V22.78Z"/><path class="cls-1" d="M22.56,54.78V32h9.73v3.07H25.82v6.69h5.64v3.07H25.82v6.69h6.47v3.26Z"/><path class="cls-1" d="M21.25,86.78V64h3.13l4.93,13.73h.07V64h3.26V86.78H29.57l-5-13.69h-.07V86.78Z"/><path class="cls-1" d="M32.22,96v17.67a5.18,5.18,0,0,1-.4,2.06,5.13,5.13,0,0,1-1.13,1.68,5.49,5.49,0,0,1-1.7,1.15,5,5,0,0,1-2,.42,5,5,0,0,1-2-.42,5.53,5.53,0,0,1-2.83-2.83,5,5,0,0,1-.42-2.06V96h3.27v17.34a2.48,2.48,0,0,0,.57,1.8,2,2,0,0,0,1.44.57,2,2,0,0,0,1.44-.57,2.44,2.44,0,0,0,.58-1.8V96Zm-7.36-1,2.88-4.52H31.2L27,95Z"/><path class="cls-2" d="M26.88,833.51v6"/><path class="cls-3" d="M26.88,847.8v12.44"/><path class="cls-2" d="M26.88,864.39v6"/><path class="cls-2" d="M26.88,744.78v6"/><path class="cls-4" d="M26.88,760.15v32.79"/><path class="cls-2" d="M26.88,797.62v6"/><path class="cls-2" d="M26.88,660.26v6"/><path class="cls-5" d="M26.88,675.74v33.17"/><path class="cls-2" d="M26.88,713.65v6"/><path class="cls-2" d="M26.88,577.28v6"/><path class="cls-6" d="M26.88,597v20.52"/><path class="cls-2" d="M26.88,624.32v6"/><path class="cls-2" d="M26.88,492v6"/><path class="cls-7" d="M26.88,511.46v20.23"/><path class="cls-2" d="M26.88,538.43v6"/><path class="cls-2" d="M26.88,399.78v6"/><path class="cls-8" d="M26.88,419.93v21.24"/><path class="cls-2" d="M26.88,448.25v6"/><path class="cls-2" d="M26.88,320.4v6"/><path class="cls-9" d="M26.88,337.48V354.1"/><path class="cls-2" d="M26.88,359.64v6"/><path class="cls-2" d="M26.88,223.22v6"/><path class="cls-10" d="M26.88,238.71v33.21"/><path class="cls-2" d="M26.88,276.66v6"/><path class="cls-2" d="M26.88,151.39v6"/><path class="cls-11" d="M26.88,168V184"/><path class="cls-2" d="M26.88,189.27v6"/><g id="INTRODUCCION"><path class="cls-12" d="M38.26,192H14.62L2.81,212.41l11.81,20.47H38.26l11.81-20.47ZM26.49,221.06h0a8.65,8.65,0,1,1,0-17.29h0a8.65,8.65,0,0,1,0,17.29Z"/><path class="cls-13" d="M26.44,222.09a9.68,9.68,0,0,1,0-19.35h.06V189.52H13.22L0,212.41l13.22,22.9H26.5V222.08Z"/><path class="cls-14" d="M52.88,212.41,39.66,189.52H26.5v13.22a9.67,9.67,0,0,1,0,19.34v13.23H39.66Z"/><path class="cls-14" d="M52.88,212.41,39.66,189.52H26.5v13.22a9.67,9.67,0,0,1,0,19.34v13.23H39.66Z"/></g><g id="LENGUAJE-2" data-name="LENGUAJE"><path class="cls-12" d="M38.26,277H14.62L2.81,297.41l11.81,20.47H38.26l11.81-20.47ZM26.49,306.06h0a8.65,8.65,0,1,1,0-17.29h0a8.65,8.65,0,0,1,0,17.29Z"/><path class="cls-13" d="M26.44,307.09a9.68,9.68,0,0,1,0-19.35h.06V274.52H13.22L0,297.41l13.22,22.9H26.5V307.08Z"/><path class="cls-14" d="M52.88,297.41,39.66,274.52H26.5v13.22a9.67,9.67,0,0,1,0,19.34v13.23H39.66Z"/><path class="cls-14" d="M52.88,297.41,39.66,274.52H26.5v13.22a9.67,9.67,0,0,1,0,19.34v13.23H39.66Z"/></g><g id="ACCESIBILIDAD"><path class="cls-12" d="M38.26,364H14.62L2.81,384.41l11.81,20.47H38.26l11.81-20.47ZM26.49,393.06h0a8.65,8.65,0,1,1,0-17.29h0a8.65,8.65,0,0,1,0,17.29Z"/><path class="cls-13" d="M26.44,394.09a9.68,9.68,0,0,1,0-19.35h.06V361.52H13.22L0,384.41l13.22,22.9H26.5V394.08Z"/><path class="cls-14" d="M52.88,384.41,39.66,361.52H26.5v13.22a9.67,9.67,0,0,1,0,19.34v13.23H39.66Z"/><path class="cls-14" d="M52.88,384.41,39.66,361.52H26.5v13.22a9.67,9.67,0,0,1,0,19.34v13.23H39.66Z"/></g><g id="MATERIALAUDIOVISUAL"><path class="cls-12" d="M38.26,451H14.62L2.81,471.41l11.81,20.47H38.26l11.81-20.47ZM26.49,480.06h0a8.65,8.65,0,1,1,0-17.29h0a8.65,8.65,0,0,1,0,17.29Z"/><path class="cls-13" d="M26.44,481.09a9.68,9.68,0,0,1,0-19.35h.06V448.52H13.22L0,471.41l13.22,22.9H26.5V481.08Z"/><path class="cls-14" d="M52.88,471.41,39.66,448.52H26.5v13.22a9.67,9.67,0,0,1,0,19.34v13.23H39.66Z"/><path class="cls-14" d="M52.88,471.41,39.66,448.52H26.5v13.22a9.67,9.67,0,0,1,0,19.34v13.23H39.66Z"/></g><g id="EVALUACIONDELOSMATERIALES"><path class="cls-12" d="M38.26,538H14.62L2.81,558.41l11.81,20.47H38.26l11.81-20.47ZM26.49,567.06h0a8.65,8.65,0,1,1,0-17.29h0a8.65,8.65,0,0,1,0,17.29Z"/><path class="cls-13" d="M26.44,568.09a9.68,9.68,0,0,1,0-19.35h.06V535.52H13.22L0,558.41l13.22,22.9H26.5V568.08Z"/><path class="cls-14" d="M52.88,558.41,39.66,535.52H26.5v13.22a9.67,9.67,0,0,1,0,19.34v13.23H39.66Z"/><path class="cls-14" d="M52.88,558.41,39.66,535.52H26.5v13.22a9.67,9.67,0,0,1,0,19.34v13.23H39.66Z"/></g><g id="RECOMENDACIONESPARALATENCION"><path class="cls-12" d="M38.26,625H14.62L2.81,645.41l11.81,20.47H38.26l11.81-20.47ZM26.49,654.06h0a8.65,8.65,0,1,1,0-17.29h0a8.65,8.65,0,0,1,0,17.29Z"/><path class="cls-13" d="M26.44,655.09a9.68,9.68,0,0,1,0-19.35h.06V622.52H13.22L0,645.41l13.22,22.9H26.5V655.08Z"/><path class="cls-14" d="M52.88,645.41,39.66,622.52H26.5v13.22a9.67,9.67,0,0,1,0,19.34v13.23H39.66Z"/><path class="cls-14" d="M52.88,645.41,39.66,622.52H26.5v13.22a9.67,9.67,0,0,1,0,19.34v13.23H39.66Z"/></g><g id="REFERENCIAS"><path class="cls-12" d="M38.26,712H14.62L2.81,732.41l11.81,20.47H38.26l11.81-20.47ZM26.49,741.06h0a8.65,8.65,0,1,1,0-17.29h0a8.65,8.65,0,0,1,0,17.29Z"/><path class="cls-13" d="M26.44,742.09a9.68,9.68,0,0,1,0-19.35h.06V709.52H13.22L0,732.41l13.22,22.9H26.5V742.08Z"/><path class="cls-14" d="M52.88,732.41,39.66,709.52H26.5v13.22a9.67,9.67,0,0,1,0,19.34v13.23H39.66Z"/><path class="cls-14" d="M52.88,732.41,39.66,709.52H26.5v13.22a9.67,9.67,0,0,1,0,19.34v13.23H39.66Z"/></g><g id="GLOSARIOYBIBLIOGRAFIA"><path class="cls-12" d="M38.26,799H14.62L2.81,819.41l11.81,20.47H38.26l11.81-20.47ZM26.49,828.06h0a8.65,8.65,0,1,1,0-17.29h0a8.65,8.65,0,0,1,0,17.29Z"/><path class="cls-13" d="M26.44,829.09a9.68,9.68,0,0,1,0-19.35h.06V796.52H13.22L0,819.41l13.22,22.9H26.5V829.08Z"/><path class="cls-14" d="M52.88,819.41,39.66,796.52H26.5v13.22a9.67,9.67,0,0,1,0,19.34v13.23H39.66Z"/><path class="cls-14" d="M52.88,819.41,39.66,796.52H26.5v13.22a9.67,9.67,0,0,1,0,19.34v13.23H39.66Z"/></g><path class="cls-1" d="M73.4,216.08V199h2.45v17.09Z"/><path class="cls-1" d="M78.08,216.08V203.91h2.45v1.17h0a3.3,3.3,0,0,1,.92-.94,2.37,2.37,0,0,1,1.38-.38,2.86,2.86,0,0,1,.91.16,2,2,0,0,1,.82.52,2.64,2.64,0,0,1,.58.92,4,4,0,0,1,.21,1.38v9.34H83v-8.43a1.58,1.58,0,0,0-.31-1.05,1.07,1.07,0,0,0-.89-.39,1.06,1.06,0,0,0-1,.43,2.5,2.5,0,0,0-.26,1.25v8.19Z"/><path class="cls-1" d="M87.42,203.91v-3.7h2.45v3.7h1.51v1.92H89.87v6.74a2,2,0,0,0,.08.67.68.68,0,0,0,.28.36,1,1,0,0,0,.46.15l.69,0v2.31h-1a3.21,3.21,0,0,1-1.4-.27,2.42,2.42,0,0,1-.9-.67,2.66,2.66,0,0,1-.5-.92,3.62,3.62,0,0,1-.15-1v-7.39H86.19v-1.92Z"/><path class="cls-1" d="M92.31,216.08V203.91h2.45v1.29a7.61,7.61,0,0,1,1.47-1,3.68,3.68,0,0,1,1.77-.39v2.6a1.92,1.92,0,0,0-.74-.15,3.24,3.24,0,0,0-.83.13,2.12,2.12,0,0,0-.8.45,2.33,2.33,0,0,0-.63.81,2.93,2.93,0,0,0-.24,1.25v7.23Z"/><path class="cls-1" d="M98.63,208a9.65,9.65,0,0,1,.09-1.37,3.56,3.56,0,0,1,.36-1.1,3.31,3.31,0,0,1,1.24-1.28,4.22,4.22,0,0,1,3.91,0,3.31,3.31,0,0,1,1.24,1.28,3.56,3.56,0,0,1,.36,1.1,9.65,9.65,0,0,1,.09,1.37v4a9.5,9.5,0,0,1-.09,1.36,3.62,3.62,0,0,1-.36,1.11,3.29,3.29,0,0,1-1.24,1.27,4.22,4.22,0,0,1-3.91,0,3.29,3.29,0,0,1-1.24-1.27,3.62,3.62,0,0,1-.36-1.11,9.5,9.5,0,0,1-.09-1.36Zm2.44,4.39a1.46,1.46,0,0,0,.33,1,1.1,1.1,0,0,0,.87.35,1.12,1.12,0,0,0,.88-.35,1.46,1.46,0,0,0,.32-1V207.6a1.46,1.46,0,0,0-.32-1,1.16,1.16,0,0,0-.88-.35,1.14,1.14,0,0,0-.87.35,1.46,1.46,0,0,0-.33,1Z"/><path class="cls-1" d="M112.59,216.08V215l-.45.49a2.55,2.55,0,0,1-.48.4,2.32,2.32,0,0,1-.6.26,2.71,2.71,0,0,1-.79.1,2.19,2.19,0,0,1-2.14-1.15,3.25,3.25,0,0,1-.31-1,9.88,9.88,0,0,1-.1-1.61v-4.63c0-.88,0-1.53.07-1.94a2.35,2.35,0,0,1,1.13-1.8,2.43,2.43,0,0,1,1.37-.32,2.46,2.46,0,0,1,1.28.33,3,3,0,0,1,1,.92h0v-6H115v17.09Zm-2.42-4a2.27,2.27,0,0,0,.29,1.2,1,1,0,0,0,.91.45,1.09,1.09,0,0,0,.89-.42,1.71,1.71,0,0,0,.33-1.09v-4.73a1.35,1.35,0,0,0-.34-.95,1.2,1.2,0,0,0-.88-.37,1,1,0,0,0-1,.43,2,2,0,0,0-.25,1Z"/><path class="cls-1" d="M124.38,203.91v12.17h-2.45V214.9h-.05a3.62,3.62,0,0,1-.92.95,2.37,2.37,0,0,1-1.38.37,2.61,2.61,0,0,1-.91-.16,2,2,0,0,1-.82-.51,2.68,2.68,0,0,1-.58-.93,3.93,3.93,0,0,1-.21-1.38v-9.33h2.45v8.42a1.63,1.63,0,0,0,.31,1.06,1.08,1.08,0,0,0,.89.38,1,1,0,0,0,1-.43,2.48,2.48,0,0,0,.26-1.25v-8.18Z"/><path class="cls-1" d="M129,212.57a1.16,1.16,0,0,0,.32.89,1.21,1.21,0,0,0,.88.31,1,1,0,0,0,.92-.41,2.37,2.37,0,0,0,.28-.81h2.44a3.49,3.49,0,0,1-1,2.59,3.33,3.33,0,0,1-1.15.79,3.84,3.84,0,0,1-1.51.29,3.77,3.77,0,0,1-2-.48,3.29,3.29,0,0,1-1.24-1.27,3.62,3.62,0,0,1-.36-1.11,9.5,9.5,0,0,1-.09-1.36v-4a9.65,9.65,0,0,1,.09-1.37,3.56,3.56,0,0,1,.36-1.1,3.31,3.31,0,0,1,1.24-1.28,3.77,3.77,0,0,1,2-.48,3.92,3.92,0,0,1,1.52.29,3.41,3.41,0,0,1,1.16.79,4.08,4.08,0,0,1,1,2.81h-2.44a1.54,1.54,0,0,0-.33-1.09,1.14,1.14,0,0,0-.87-.35,1.16,1.16,0,0,0-.88.35,1.46,1.46,0,0,0-.32,1Z"/><path class="cls-1" d="M137.87,212.57a1.16,1.16,0,0,0,.32.89,1.2,1.2,0,0,0,.87.31,1,1,0,0,0,.93-.41,2.37,2.37,0,0,0,.28-.81h2.44a3.49,3.49,0,0,1-1,2.59,3.42,3.42,0,0,1-1.15.79,3.89,3.89,0,0,1-1.52.29,3.76,3.76,0,0,1-1.95-.48,3.29,3.29,0,0,1-1.24-1.27,3.62,3.62,0,0,1-.36-1.11,9.5,9.5,0,0,1-.09-1.36v-4a9.65,9.65,0,0,1,.09-1.37,3.56,3.56,0,0,1,.36-1.1,3.31,3.31,0,0,1,1.24-1.28,3.76,3.76,0,0,1,1.95-.48,4,4,0,0,1,1.53.29,3.51,3.51,0,0,1,1.16.79,4.08,4.08,0,0,1,1,2.81h-2.44a1.54,1.54,0,0,0-.33-1.09,1.27,1.27,0,0,0-1.75,0,1.46,1.46,0,0,0-.32,1Z"/><path class="cls-1" d="M144.15,201.44V199h2.45v2.45Zm0,14.64V203.91h2.45v12.17Z"/><path class="cls-1" d="M148.4,208a8.32,8.32,0,0,1,.1-1.37,3.1,3.1,0,0,1,.36-1.1,3.36,3.36,0,0,1,1.23-1.28,3.77,3.77,0,0,1,2-.48,3.71,3.71,0,0,1,1.95.48,3.31,3.31,0,0,1,1.24,1.28,3.1,3.1,0,0,1,.36,1.1,9.57,9.57,0,0,1,.1,1.37v4a9.43,9.43,0,0,1-.1,1.36,3.15,3.15,0,0,1-.36,1.11,3.29,3.29,0,0,1-1.24,1.27,3.71,3.71,0,0,1-1.95.48,3.77,3.77,0,0,1-2-.48,3.33,3.33,0,0,1-1.23-1.27,3.15,3.15,0,0,1-.36-1.11,8.19,8.19,0,0,1-.1-1.36Zm2.09-5.69,2.16-3.38h2.59l-3.17,3.38Zm.36,10.08a1.5,1.5,0,0,0,.32,1,1.12,1.12,0,0,0,.88.35,1.09,1.09,0,0,0,.87-.35,1.46,1.46,0,0,0,.33-1V207.6a1.46,1.46,0,0,0-.33-1,1.12,1.12,0,0,0-.87-.35,1.16,1.16,0,0,0-.88.35,1.5,1.5,0,0,0-.32,1Z"/><path class="cls-1" d="M157.5,216.08V203.91h2.44v1.17H160a3.47,3.47,0,0,1,.93-.94,2.37,2.37,0,0,1,1.38-.38,3,3,0,0,1,.91.16,2.08,2.08,0,0,1,.81.52,2.5,2.5,0,0,1,.58.92,4,4,0,0,1,.22,1.38v9.34h-2.45v-8.43a1.64,1.64,0,0,0-.31-1.05,1.08,1.08,0,0,0-.89-.39,1,1,0,0,0-1,.43,2.39,2.39,0,0,0-.27,1.25v8.19Z"/><path class="cls-1" d="M73.33,303.08V286h2.45v14.64h4.85v2.45Z"/><path class="cls-1" d="M89.15,297.92H84.3v1.65a1.2,1.2,0,0,0,.32.89,1.21,1.21,0,0,0,.88.31,1,1,0,0,0,.92-.41,2.18,2.18,0,0,0,.28-.81h2.45a3.5,3.5,0,0,1-1,2.59,3.33,3.33,0,0,1-1.15.79,3.84,3.84,0,0,1-1.51.29,3.77,3.77,0,0,1-2-.48,3.26,3.26,0,0,1-1.23-1.27,3.15,3.15,0,0,1-.36-1.11,8.19,8.19,0,0,1-.1-1.36v-4a8.32,8.32,0,0,1,.1-1.37,3.1,3.1,0,0,1,.36-1.1,3.29,3.29,0,0,1,1.23-1.28,3.77,3.77,0,0,1,2-.48,3.89,3.89,0,0,1,1.52.29,3.45,3.45,0,0,1,1.17.79,4,4,0,0,1,1,2.72ZM84.3,296h2.4v-1.4a1.46,1.46,0,0,0-.33-1,1.12,1.12,0,0,0-.87-.35,1.16,1.16,0,0,0-.88.35,1.5,1.5,0,0,0-.32,1Z"/><path class="cls-1" d="M91,303.08V290.91h2.44v1.17h0a3.47,3.47,0,0,1,.93-.94,2.37,2.37,0,0,1,1.38-.38,3,3,0,0,1,.91.16,2.08,2.08,0,0,1,.81.52,2.5,2.5,0,0,1,.58.92,4,4,0,0,1,.22,1.38v9.34H95.82v-8.43a1.64,1.64,0,0,0-.31-1,1.08,1.08,0,0,0-.89-.39,1,1,0,0,0-1,.43,2.39,2.39,0,0,0-.27,1.25v8.19Z"/><path class="cls-1" d="M102.73,304.49a1.39,1.39,0,0,0,.35.82,1.18,1.18,0,0,0,1,.38,1,1,0,0,0,.86-.37,1.57,1.57,0,0,0,.26-.95V302h0a3.09,3.09,0,0,1-1,.93,2.61,2.61,0,0,1-1.3.32,2.19,2.19,0,0,1-2.14-1.15,3.25,3.25,0,0,1-.31-1,9.88,9.88,0,0,1-.1-1.61v-4.63c0-.88,0-1.53.07-1.94a2.35,2.35,0,0,1,1.13-1.8,2.43,2.43,0,0,1,1.37-.32,3,3,0,0,1,.78.1,2.25,2.25,0,0,1,.59.26,3.64,3.64,0,0,1,.48.4l.45.49v-1.1h2.45v13.65a4.25,4.25,0,0,1-.2,1.26,3.1,3.1,0,0,1-.66,1.14,3.44,3.44,0,0,1-1.15.86,4,4,0,0,1-1.66.32,4,4,0,0,1-1.15-.18,3,3,0,0,1-1.11-.61,3.5,3.5,0,0,1-.9-1.09,5,5,0,0,1-.49-1.77Zm0-5.16a1.94,1.94,0,0,0,.25,1,1,1,0,0,0,1,.43,1.16,1.16,0,0,0,.88-.37,1.33,1.33,0,0,0,.34-.95v-4.73a1.73,1.73,0,0,0-.33-1.09,1.09,1.09,0,0,0-.89-.42,1,1,0,0,0-.91.46,2.22,2.22,0,0,0-.29,1.2Z"/><path class="cls-1" d="M116.94,290.91v12.17h-2.45V301.9h0a3.47,3.47,0,0,1-.92,1,2.37,2.37,0,0,1-1.38.37,2.61,2.61,0,0,1-.91-.16,2,2,0,0,1-.82-.51,2.68,2.68,0,0,1-.58-.93,3.93,3.93,0,0,1-.21-1.38v-9.33h2.45v8.42a1.63,1.63,0,0,0,.31,1.06,1.08,1.08,0,0,0,.89.38,1,1,0,0,0,1-.43,2.48,2.48,0,0,0,.26-1.25v-8.18Z"/><path class="cls-1" d="M123.59,303.08v-1.25h0a4.63,4.63,0,0,1-1,1,2.31,2.31,0,0,1-1.38.36,3,3,0,0,1-.88-.13,2.24,2.24,0,0,1-.85-.49,2.42,2.42,0,0,1-.66-1,4.45,4.45,0,0,1-.25-1.64,8.82,8.82,0,0,1,.16-1.81,2.92,2.92,0,0,1,.63-1.31,2.62,2.62,0,0,1,1.17-.76,6.29,6.29,0,0,1,1.9-.25h.26a1.12,1.12,0,0,1,.27,0l.29,0,.36,0v-1.27a1.84,1.84,0,0,0-.27-1,1,1,0,0,0-1-.41,1.4,1.4,0,0,0-.87.31,1.48,1.48,0,0,0-.52.92h-2.38a4,4,0,0,1,1.11-2.64,3.39,3.39,0,0,1,1.15-.76,4,4,0,0,1,1.51-.28,4.27,4.27,0,0,1,1.44.24,3.32,3.32,0,0,1,1.18.72,3.65,3.65,0,0,1,.77,1.2,4.55,4.55,0,0,1,.28,1.68v8.48Zm0-5.24a5.21,5.21,0,0,0-.68-.07,2.46,2.46,0,0,0-1.35.37,1.5,1.5,0,0,0-.57,1.36,1.77,1.77,0,0,0,.34,1.13,1.11,1.11,0,0,0,.94.43,1.22,1.22,0,0,0,1-.41,1.72,1.72,0,0,0,.35-1.15Z"/><path class="cls-1" d="M127.83,290.91h2.45v13.46a3.24,3.24,0,0,1-1.13,2.71,4.37,4.37,0,0,1-2.85.92v-2.31a1.43,1.43,0,0,0,1.22-.45,1.53,1.53,0,0,0,.25-.69,8,8,0,0,0,.06-1.09Zm0-2.47V286h2.45v2.45Z"/><path class="cls-1" d="M139.38,297.92h-4.85v1.65a1.2,1.2,0,0,0,.32.89,1.21,1.21,0,0,0,.88.31,1,1,0,0,0,.92-.41,2,2,0,0,0,.28-.81h2.45a3.5,3.5,0,0,1-1,2.59,3.33,3.33,0,0,1-1.15.79,3.84,3.84,0,0,1-1.51.29,3.77,3.77,0,0,1-2-.48,3.33,3.33,0,0,1-1.23-1.27,3.15,3.15,0,0,1-.36-1.11,8.19,8.19,0,0,1-.1-1.36v-4a8.32,8.32,0,0,1,.1-1.37,3.1,3.1,0,0,1,.36-1.1,3.36,3.36,0,0,1,1.23-1.28,3.77,3.77,0,0,1,2-.48,3.89,3.89,0,0,1,1.52.29,3.45,3.45,0,0,1,1.17.79,4,4,0,0,1,1,2.72ZM134.53,296h2.4v-1.4a1.46,1.46,0,0,0-.33-1,1.12,1.12,0,0,0-.87-.35,1.16,1.16,0,0,0-.88.35,1.5,1.5,0,0,0-.32,1Z"/><path class="cls-1" d="M72.23,391.08,76,374h2l3.82,17.09H79.45l-.72-3.68H75.39l-.72,3.68Zm6-6-1.2-6.19h0l-1.2,6.19Z"/><path class="cls-1" d="M85.55,387.57a1.16,1.16,0,0,0,.32.89,1.21,1.21,0,0,0,.88.31,1,1,0,0,0,.92-.41,2.37,2.37,0,0,0,.28-.81h2.44a3.49,3.49,0,0,1-1,2.59,3.33,3.33,0,0,1-1.15.79,3.84,3.84,0,0,1-1.51.29,3.77,3.77,0,0,1-2-.48,3.29,3.29,0,0,1-1.24-1.27,3.62,3.62,0,0,1-.36-1.11A9.5,9.5,0,0,1,83.1,387v-4a9.65,9.65,0,0,1,.09-1.37,3.56,3.56,0,0,1,.36-1.1,3.31,3.31,0,0,1,1.24-1.28,3.77,3.77,0,0,1,2-.48,3.92,3.92,0,0,1,1.52.29,3.41,3.41,0,0,1,1.16.79,4.08,4.08,0,0,1,1,2.81H88a1.54,1.54,0,0,0-.33-1.09,1.14,1.14,0,0,0-.87-.35,1.16,1.16,0,0,0-.88.35,1.46,1.46,0,0,0-.32,1Z"/><path class="cls-1" d="M94.43,387.57a1.16,1.16,0,0,0,.32.89,1.21,1.21,0,0,0,.88.31,1,1,0,0,0,.92-.41,2.37,2.37,0,0,0,.28-.81h2.44a3.49,3.49,0,0,1-1,2.59,3.33,3.33,0,0,1-1.15.79,3.84,3.84,0,0,1-1.51.29,3.77,3.77,0,0,1-2-.48,3.29,3.29,0,0,1-1.24-1.27,3.62,3.62,0,0,1-.36-1.11A9.5,9.5,0,0,1,92,387v-4a9.65,9.65,0,0,1,.09-1.37,3.56,3.56,0,0,1,.36-1.1,3.31,3.31,0,0,1,1.24-1.28,3.77,3.77,0,0,1,2-.48,3.92,3.92,0,0,1,1.52.29,3.41,3.41,0,0,1,1.16.79,4.08,4.08,0,0,1,1,2.81H96.83a1.54,1.54,0,0,0-.33-1.09,1.14,1.14,0,0,0-.87-.35,1.16,1.16,0,0,0-.88.35,1.46,1.46,0,0,0-.32,1Z"/><path class="cls-1" d="M107.79,385.92H103v1.65a1.16,1.16,0,0,0,.32.89,1.21,1.21,0,0,0,.88.31,1,1,0,0,0,.92-.41,2.37,2.37,0,0,0,.28-.81h2.44a3.49,3.49,0,0,1-1,2.59,3.33,3.33,0,0,1-1.15.79,3.84,3.84,0,0,1-1.51.29,3.77,3.77,0,0,1-2-.48,3.29,3.29,0,0,1-1.24-1.27,3.62,3.62,0,0,1-.36-1.11,9.5,9.5,0,0,1-.09-1.36v-4a9.65,9.65,0,0,1,.09-1.37,3.56,3.56,0,0,1,.36-1.1,3.31,3.31,0,0,1,1.24-1.28,3.77,3.77,0,0,1,2-.48,3.92,3.92,0,0,1,1.52.29,3.41,3.41,0,0,1,1.16.79,4,4,0,0,1,1,2.72ZM103,384h2.4v-1.4a1.46,1.46,0,0,0-.33-1,1.14,1.14,0,0,0-.87-.35,1.16,1.16,0,0,0-.88.35,1.46,1.46,0,0,0-.32,1Z"/><path class="cls-1" d="M114,382.32a1.19,1.19,0,0,0-.39-.94,1.27,1.27,0,0,0-.85-.31,1.07,1.07,0,0,0-.89.37,1.27,1.27,0,0,0-.31.85,1.4,1.4,0,0,0,.16.66,1.59,1.59,0,0,0,.87.59l1.44.58a3.46,3.46,0,0,1,1.88,1.44,3.89,3.89,0,0,1,.52,2,3.58,3.58,0,0,1-.28,1.43,3.73,3.73,0,0,1-.75,1.16,3.46,3.46,0,0,1-1.16.79,3.66,3.66,0,0,1-1.46.29,3.53,3.53,0,0,1-2.5-.94,3.45,3.45,0,0,1-.81-1.14,4,4,0,0,1-.34-1.59h2.31a2.23,2.23,0,0,0,.34.93,1.08,1.08,0,0,0,1,.44,1.44,1.44,0,0,0,.94-.35,1.19,1.19,0,0,0,.42-1,1.4,1.4,0,0,0-.26-.87,2.07,2.07,0,0,0-1-.62l-1.18-.43a4.05,4.05,0,0,1-1.81-1.29,3.29,3.29,0,0,1-.66-2.07,3.53,3.53,0,0,1,1.08-2.57,3.14,3.14,0,0,1,1.13-.73,3.77,3.77,0,0,1,1.39-.26,3.47,3.47,0,0,1,1.38.27,3,3,0,0,1,1.09.74,3.35,3.35,0,0,1,.72,1.14,3.69,3.69,0,0,1,.27,1.41Z"/><path class="cls-1" d="M118,376.44V374h2.45v2.45Zm0,14.64V378.91h2.45v12.17Z"/><path class="cls-1" d="M122.5,391.08V374H125v6h0a2.92,2.92,0,0,1,1-.92,2.53,2.53,0,0,1,1.29-.33,2.56,2.56,0,0,1,1.38.32,2.62,2.62,0,0,1,.8.79,2.27,2.27,0,0,1,.31,1,17.55,17.55,0,0,1,.08,1.94v4.63a11.16,11.16,0,0,1-.1,1.61,3.25,3.25,0,0,1-.31,1,2.23,2.23,0,0,1-2.14,1.15,2.28,2.28,0,0,1-1.39-.36A6.44,6.44,0,0,1,125,390v1.11Zm4.88-8.43a2,2,0,0,0-.26-1,1,1,0,0,0-.94-.43,1.17,1.17,0,0,0-.88.37,1.36,1.36,0,0,0-.35.95v4.73a1.65,1.65,0,0,0,.34,1.09,1.08,1.08,0,0,0,.89.42,1,1,0,0,0,.91-.45,2.27,2.27,0,0,0,.29-1.2Z"/><path class="cls-1" d="M131.84,376.44V374h2.45v2.45Zm0,14.64V378.91h2.45v12.17Z"/><path class="cls-1" d="M136.16,374h2.45v13.65a1.34,1.34,0,0,0,.25.95,1.58,1.58,0,0,0,.95.33v2.3a7.66,7.66,0,0,1-1.51-.13,2.53,2.53,0,0,1-1.15-.52,2.19,2.19,0,0,1-.74-1,5.17,5.17,0,0,1-.25-1.74Z"/><path class="cls-1" d="M140.77,376.44V374h2.45v2.45Zm0,14.64V378.91h2.45v12.17Z"/><path class="cls-1" d="M150.1,391.08V390l-.45.49a2.55,2.55,0,0,1-.48.4,2.32,2.32,0,0,1-.6.26,2.71,2.71,0,0,1-.79.1,2.19,2.19,0,0,1-2.14-1.15,3.25,3.25,0,0,1-.31-1,9.88,9.88,0,0,1-.1-1.61v-4.63c0-.88,0-1.53.07-1.94a2.35,2.35,0,0,1,1.13-1.8,2.43,2.43,0,0,1,1.37-.32,2.46,2.46,0,0,1,1.28.33,3,3,0,0,1,1,.92h0v-6h2.45v17.09Zm-2.42-4a2.27,2.27,0,0,0,.29,1.2,1,1,0,0,0,.91.45,1.09,1.09,0,0,0,.89-.42,1.71,1.71,0,0,0,.33-1.09v-4.73a1.35,1.35,0,0,0-.34-.95,1.2,1.2,0,0,0-.88-.37,1,1,0,0,0-.95.43,2,2,0,0,0-.25,1Z"/><path class="cls-1" d="M159.2,391.08v-1.25h0a4.41,4.41,0,0,1-1,1,2.31,2.31,0,0,1-1.38.36,3,3,0,0,1-.88-.13,2.31,2.31,0,0,1-.85-.49,2.42,2.42,0,0,1-.66-1,4.45,4.45,0,0,1-.25-1.64,8.77,8.77,0,0,1,.17-1.81,2.91,2.91,0,0,1,.62-1.31,2.6,2.6,0,0,1,1.18-.76,6.22,6.22,0,0,1,1.89-.25h.27a1.09,1.09,0,0,1,.26,0l.29,0,.36,0v-1.27a1.92,1.92,0,0,0-.26-1,1.07,1.07,0,0,0-1-.41,1.43,1.43,0,0,0-.88.31,1.53,1.53,0,0,0-.52.92h-2.37a3.89,3.89,0,0,1,1.1-2.64,3.5,3.5,0,0,1,1.15-.76,4.07,4.07,0,0,1,1.52-.28,4.27,4.27,0,0,1,1.44.24,3.28,3.28,0,0,1,1.17.72,3.49,3.49,0,0,1,.77,1.2,4.54,4.54,0,0,1,.29,1.68v8.48Zm0-5.24a5.08,5.08,0,0,0-.67-.07,2.49,2.49,0,0,0-1.36.37,1.52,1.52,0,0,0-.56,1.36,1.83,1.83,0,0,0,.33,1.13,1.13,1.13,0,0,0,.94.43,1.2,1.2,0,0,0,1-.41,1.72,1.72,0,0,0,.35-1.15Z"/><path class="cls-1" d="M168.32,391.08V390l-.46.49a2.24,2.24,0,0,1-1.08.66,2.62,2.62,0,0,1-.79.1,2.19,2.19,0,0,1-2.13-1.15,3.24,3.24,0,0,1-.32-1,11.4,11.4,0,0,1-.09-1.61v-4.63a18.17,18.17,0,0,1,.07-1.94,2.32,2.32,0,0,1,1.13-1.8,2.41,2.41,0,0,1,1.37-.32,2.49,2.49,0,0,1,1.28.33,2.83,2.83,0,0,1,1,.92h0v-6h2.45v17.09Zm-2.42-4a2.27,2.27,0,0,0,.28,1.2,1,1,0,0,0,.92.45,1.07,1.07,0,0,0,.88-.42,1.65,1.65,0,0,0,.34-1.09v-4.73a1.36,1.36,0,0,0-.35-.95,1.16,1.16,0,0,0-.87-.37,1,1,0,0,0-.95.43,2,2,0,0,0-.25,1Z"/><path class="cls-1" d="M73.33,465.08V448h2.35L78.83,457h0L82,448h2.38v17.09H81.92v-10.4h0L79.45,462H78.23l-2.4-7.35h0v10.4Z"/><path class="cls-1" d="M91.16,465.08v-1.25h0a4.41,4.41,0,0,1-1,1,2.31,2.31,0,0,1-1.38.36,2.91,2.91,0,0,1-.87-.13,2.35,2.35,0,0,1-.86-.49,2.42,2.42,0,0,1-.66-1,4.67,4.67,0,0,1-.25-1.64,8.77,8.77,0,0,1,.17-1.81,2.91,2.91,0,0,1,.62-1.31,2.6,2.6,0,0,1,1.18-.76,6.29,6.29,0,0,1,1.9-.25h.26a1,1,0,0,1,.26,0l.29,0,.36,0v-1.27a1.92,1.92,0,0,0-.26-1,1.07,1.07,0,0,0-1-.41,1.45,1.45,0,0,0-.88.31,1.52,1.52,0,0,0-.51.92H86.17a3.89,3.89,0,0,1,1.1-2.64,3.44,3.44,0,0,1,1.16-.76,4,4,0,0,1,1.51-.28,4.27,4.27,0,0,1,1.44.24,3.2,3.2,0,0,1,1.17.72,3.49,3.49,0,0,1,.77,1.2,4.54,4.54,0,0,1,.29,1.68v8.48Zm0-5.24a4.92,4.92,0,0,0-.67-.07,2.49,2.49,0,0,0-1.36.37,1.52,1.52,0,0,0-.56,1.36,1.77,1.77,0,0,0,.34,1.13,1.1,1.1,0,0,0,.93.43,1.2,1.2,0,0,0,1-.41,1.67,1.67,0,0,0,.35-1.15Z"/><path class="cls-1" d="M95.41,452.91v-3.7h2.45v3.7h1.51v1.92H97.86v6.74a2.3,2.3,0,0,0,.08.67.68.68,0,0,0,.28.36,1.09,1.09,0,0,0,.47.15l.68,0v2.31h-1a3.21,3.21,0,0,1-1.4-.27,2.42,2.42,0,0,1-.9-.67,2.48,2.48,0,0,1-.49-.92,3.31,3.31,0,0,1-.16-1v-7.39H94.19v-1.92Z"/><path class="cls-1" d="M107.39,459.92h-4.85v1.65a1.2,1.2,0,0,0,.32.89,1.21,1.21,0,0,0,.88.31,1,1,0,0,0,.92-.41,2.18,2.18,0,0,0,.28-.81h2.45a3.5,3.5,0,0,1-1,2.59,3.33,3.33,0,0,1-1.15.79,3.84,3.84,0,0,1-1.51.29,3.77,3.77,0,0,1-2-.48,3.26,3.26,0,0,1-1.23-1.27,3.15,3.15,0,0,1-.36-1.11,8.19,8.19,0,0,1-.1-1.36v-4a8.32,8.32,0,0,1,.1-1.37,3.1,3.1,0,0,1,.36-1.1,3.29,3.29,0,0,1,1.23-1.28,3.77,3.77,0,0,1,2-.48,3.89,3.89,0,0,1,1.52.29,3.55,3.55,0,0,1,1.17.79,4,4,0,0,1,1,2.72ZM102.54,458h2.4v-1.4a1.46,1.46,0,0,0-.33-1,1.12,1.12,0,0,0-.87-.35,1.16,1.16,0,0,0-.88.35,1.5,1.5,0,0,0-.32,1Z"/><path class="cls-1" d="M109.19,465.08V452.91h2.44v1.29a7.61,7.61,0,0,1,1.47-1.05,3.68,3.68,0,0,1,1.77-.39v2.6a1.92,1.92,0,0,0-.74-.15,3.24,3.24,0,0,0-.83.13,2.12,2.12,0,0,0-.8.45,2.33,2.33,0,0,0-.63.81,2.93,2.93,0,0,0-.24,1.25v7.23Z"/><path class="cls-1" d="M115.86,450.44V448h2.45v2.45Zm0,14.64V452.91h2.45v12.17Z"/><path class="cls-1" d="M125,465.08v-1.25h0a4.41,4.41,0,0,1-1,1,2.31,2.31,0,0,1-1.38.36,3,3,0,0,1-.87-.13,2.4,2.4,0,0,1-1.51-1.47,4.43,4.43,0,0,1-.26-1.64,8.77,8.77,0,0,1,.17-1.81,2.82,2.82,0,0,1,.63-1.31,2.52,2.52,0,0,1,1.17-.76,6.29,6.29,0,0,1,1.9-.25H124a1.18,1.18,0,0,1,.27,0l.28,0,.36,0v-1.27a1.92,1.92,0,0,0-.26-1,1.07,1.07,0,0,0-1-.41,1.45,1.45,0,0,0-.88.31,1.52,1.52,0,0,0-.51.92H120a3.89,3.89,0,0,1,1.1-2.64,3.44,3.44,0,0,1,1.16-.76,4,4,0,0,1,1.51-.28,4.27,4.27,0,0,1,1.44.24,3.32,3.32,0,0,1,1.18.72,3.47,3.47,0,0,1,.76,1.2,4.35,4.35,0,0,1,.29,1.68v8.48Zm0-5.24a4.92,4.92,0,0,0-.67-.07,2.49,2.49,0,0,0-1.36.37,1.52,1.52,0,0,0-.56,1.36,1.77,1.77,0,0,0,.34,1.13,1.1,1.1,0,0,0,.93.43,1.2,1.2,0,0,0,1-.41,1.67,1.67,0,0,0,.35-1.15Z"/><path class="cls-1" d="M129.06,448h2.44v13.65a1.33,1.33,0,0,0,.26.95,1.55,1.55,0,0,0,1,.33v2.3a7.76,7.76,0,0,1-1.52-.13,2.58,2.58,0,0,1-1.15-.52,2.24,2.24,0,0,1-.73-1,4.93,4.93,0,0,1-.25-1.74Z"/><path class="cls-1" d="M77.82,490.08v-1.25h0a4.41,4.41,0,0,1-1,1,2.31,2.31,0,0,1-1.38.36,3,3,0,0,1-.88-.13,2.31,2.31,0,0,1-.85-.49,2.42,2.42,0,0,1-.66-1,4.45,4.45,0,0,1-.25-1.64,8.13,8.13,0,0,1,.17-1.81,2.91,2.91,0,0,1,.62-1.31,2.6,2.6,0,0,1,1.18-.76,6.18,6.18,0,0,1,1.89-.25h.27a1.09,1.09,0,0,1,.26,0l.29,0,.36,0v-1.27a1.84,1.84,0,0,0-.27-1,1,1,0,0,0-1-.41,1.4,1.4,0,0,0-.87.31,1.48,1.48,0,0,0-.52.92H72.83a3.89,3.89,0,0,1,1.1-2.64,3.39,3.39,0,0,1,1.15-.76,4,4,0,0,1,1.51-.28A4.18,4.18,0,0,1,78,478a3.32,3.32,0,0,1,1.18.72,3.49,3.49,0,0,1,.77,1.2,4.54,4.54,0,0,1,.29,1.68v8.48Zm0-5.24a5.08,5.08,0,0,0-.67-.07,2.49,2.49,0,0,0-1.36.37,1.5,1.5,0,0,0-.56,1.36,1.83,1.83,0,0,0,.33,1.13,1.13,1.13,0,0,0,.94.43,1.22,1.22,0,0,0,1-.41,1.72,1.72,0,0,0,.35-1.15Z"/><path class="cls-1" d="M89.39,477.91v12.17H86.94V488.9h0a3.62,3.62,0,0,1-.92,1,2.37,2.37,0,0,1-1.38.37,2.7,2.7,0,0,1-.92-.16,2.06,2.06,0,0,1-.81-.51,2.68,2.68,0,0,1-.58-.93,3.93,3.93,0,0,1-.21-1.38v-9.33h2.44v8.42a1.63,1.63,0,0,0,.32,1.06,1.07,1.07,0,0,0,.88.38,1,1,0,0,0,1-.43,2.37,2.37,0,0,0,.27-1.25v-8.18Z"/><path class="cls-1" d="M96.27,490.08V489l-.45.49a2.55,2.55,0,0,1-.48.4,2.32,2.32,0,0,1-.6.26,2.71,2.71,0,0,1-.79.1,2.19,2.19,0,0,1-2.14-1.15,3.25,3.25,0,0,1-.31-1,9.88,9.88,0,0,1-.1-1.61v-4.63c0-.88,0-1.53.07-1.94a2.35,2.35,0,0,1,1.13-1.8,2.43,2.43,0,0,1,1.37-.32,2.46,2.46,0,0,1,1.28.33,3,3,0,0,1,1,.92h0v-6h2.45v17.09Zm-2.42-4a2.27,2.27,0,0,0,.29,1.2,1,1,0,0,0,.91.45,1.09,1.09,0,0,0,.89-.42,1.71,1.71,0,0,0,.33-1.09v-4.73a1.35,1.35,0,0,0-.34-.95,1.2,1.2,0,0,0-.88-.37,1,1,0,0,0-1,.43,2,2,0,0,0-.25,1Z"/><path class="cls-1" d="M100.74,475.44V473h2.45v2.45Zm0,14.64V477.91h2.45v12.17Z"/><path class="cls-1" d="M105,482a9.65,9.65,0,0,1,.09-1.37,3.56,3.56,0,0,1,.36-1.1,3.31,3.31,0,0,1,1.24-1.28,4.22,4.22,0,0,1,3.91,0,3.38,3.38,0,0,1,1.24,1.28,3.56,3.56,0,0,1,.36,1.1,9.65,9.65,0,0,1,.09,1.37v4a9.5,9.5,0,0,1-.09,1.36,3.62,3.62,0,0,1-.36,1.11,3.36,3.36,0,0,1-1.24,1.27,4.22,4.22,0,0,1-3.91,0,3.29,3.29,0,0,1-1.24-1.27,3.62,3.62,0,0,1-.36-1.11A9.5,9.5,0,0,1,105,486Zm2.44,4.39a1.46,1.46,0,0,0,.33,1,1.1,1.1,0,0,0,.87.35,1.12,1.12,0,0,0,.88-.35,1.46,1.46,0,0,0,.32-1V481.6a1.46,1.46,0,0,0-.32-1,1.16,1.16,0,0,0-.88-.35,1.14,1.14,0,0,0-.87.35,1.46,1.46,0,0,0-.33,1Z"/><path class="cls-1" d="M121.4,477.91l-3.17,12.17h-2.16l-3.16-12.17h2.59l1.63,7.77h.05l1.63-7.77Z"/><path class="cls-1" d="M122.38,475.44V473h2.45v2.45Zm0,14.64V477.91h2.45v12.17Z"/><path class="cls-1" d="M131.29,481.32a1.23,1.23,0,0,0-.4-.94,1.27,1.27,0,0,0-.85-.31,1.1,1.1,0,0,0-.89.37,1.27,1.27,0,0,0-.31.85,1.41,1.41,0,0,0,.17.66,1.56,1.56,0,0,0,.86.59l1.44.58a3.52,3.52,0,0,1,1.89,1.44,4,4,0,0,1,.51,2,3.75,3.75,0,0,1-.27,1.43,4,4,0,0,1-.76,1.16,3.33,3.33,0,0,1-1.15.79,3.74,3.74,0,0,1-1.47.29,3.49,3.49,0,0,1-2.49-.94,3.34,3.34,0,0,1-.82-1.14,3.88,3.88,0,0,1-.33-1.59h2.3a2.24,2.24,0,0,0,.35.93,1.06,1.06,0,0,0,1,.44,1.47,1.47,0,0,0,1-.35,1.19,1.19,0,0,0,.42-1,1.47,1.47,0,0,0-.26-.87,2.07,2.07,0,0,0-1-.62l-1.18-.43a4,4,0,0,1-1.81-1.29,3.29,3.29,0,0,1-.66-2.07,3.43,3.43,0,0,1,1.08-2.57,3.11,3.11,0,0,1,1.12-.73,3.83,3.83,0,0,1,1.4-.26,3.54,3.54,0,0,1,1.38.27,3.15,3.15,0,0,1,1.09.74,3.69,3.69,0,0,1,.72,1.14,3.88,3.88,0,0,1,.26,1.41Z"/><path class="cls-1" d="M142.62,477.91v12.17h-2.45V488.9h0a3.62,3.62,0,0,1-.92,1,2.37,2.37,0,0,1-1.38.37,2.7,2.7,0,0,1-.92-.16,2.06,2.06,0,0,1-.81-.51,2.68,2.68,0,0,1-.58-.93,3.93,3.93,0,0,1-.21-1.38v-9.33h2.44v8.42a1.63,1.63,0,0,0,.32,1.06,1.07,1.07,0,0,0,.88.38,1,1,0,0,0,1-.43,2.37,2.37,0,0,0,.27-1.25v-8.18Z"/><path class="cls-1" d="M149.26,490.08v-1.25h0a4.44,4.44,0,0,1-1,1,2.27,2.27,0,0,1-1.38.36,3,3,0,0,1-.87-.13,2.4,2.4,0,0,1-1.51-1.47,4.43,4.43,0,0,1-.26-1.64,8.77,8.77,0,0,1,.17-1.81,2.82,2.82,0,0,1,.63-1.31,2.57,2.57,0,0,1,1.17-.76,6.29,6.29,0,0,1,1.9-.25h.26a1.12,1.12,0,0,1,.27,0l.28,0,.36,0v-1.27a1.83,1.83,0,0,0-.26-1,1.07,1.07,0,0,0-1-.41,1.45,1.45,0,0,0-.88.31,1.52,1.52,0,0,0-.51.92h-2.38a3.9,3.9,0,0,1,1.11-2.64,3.39,3.39,0,0,1,1.15-.76,4,4,0,0,1,1.51-.28,4.27,4.27,0,0,1,1.44.24,3.32,3.32,0,0,1,1.18.72,3.47,3.47,0,0,1,.76,1.2,4.35,4.35,0,0,1,.29,1.68v8.48Zm0-5.24a4.92,4.92,0,0,0-.67-.07,2.43,2.43,0,0,0-1.35.37,1.5,1.5,0,0,0-.57,1.36,1.77,1.77,0,0,0,.34,1.13,1.1,1.1,0,0,0,.93.43,1.24,1.24,0,0,0,1-.41,1.72,1.72,0,0,0,.34-1.15Z"/><path class="cls-1" d="M153.37,473h2.45v13.65a1.34,1.34,0,0,0,.25.95,1.58,1.58,0,0,0,1,.33v2.3a7.83,7.83,0,0,1-1.52-.13,2.64,2.64,0,0,1-1.15-.52,2.24,2.24,0,0,1-.73-1,4.93,4.93,0,0,1-.25-1.74Z"/><path class="cls-1" d="M73.33,552.08V535h7.3v2.3H75.78v5H80v2.3H75.78v5h4.85v2.45Z"/><path class="cls-1" d="M89.53,539.91l-3.17,12.17H84.2L81,539.91h2.6l1.63,7.77h0l1.63-7.77Z"/><path class="cls-1" d="M95,552.08v-1.25h0a4.41,4.41,0,0,1-1,1,2.31,2.31,0,0,1-1.38.36,2.91,2.91,0,0,1-.87-.13,2.35,2.35,0,0,1-.86-.49,2.42,2.42,0,0,1-.66-1A4.67,4.67,0,0,1,90,549a8.77,8.77,0,0,1,.17-1.81,2.91,2.91,0,0,1,.62-1.31,2.6,2.6,0,0,1,1.18-.76,6.29,6.29,0,0,1,1.9-.25h.26a1,1,0,0,1,.26,0l.29,0,.36,0v-1.27a1.92,1.92,0,0,0-.26-1,1.07,1.07,0,0,0-1-.41,1.45,1.45,0,0,0-.88.31,1.52,1.52,0,0,0-.51.92H90a3.89,3.89,0,0,1,1.1-2.64,3.44,3.44,0,0,1,1.16-.76,4,4,0,0,1,1.51-.28,4.27,4.27,0,0,1,1.44.24,3.2,3.2,0,0,1,1.17.72,3.49,3.49,0,0,1,.77,1.2,4.54,4.54,0,0,1,.29,1.68v8.48Zm0-5.24a4.92,4.92,0,0,0-.67-.07,2.49,2.49,0,0,0-1.36.37,1.52,1.52,0,0,0-.56,1.36,1.77,1.77,0,0,0,.34,1.13,1.1,1.1,0,0,0,.93.43,1.2,1.2,0,0,0,1-.41A1.67,1.67,0,0,0,95,548.5Z"/><path class="cls-1" d="M99.1,535h2.45v13.65a1.33,1.33,0,0,0,.26,1,1.55,1.55,0,0,0,.94.33v2.3a7.72,7.72,0,0,1-1.51-.13,2.58,2.58,0,0,1-1.15-.52,2.24,2.24,0,0,1-.73-1,4.91,4.91,0,0,1-.26-1.74Z"/><path class="cls-1" d="M111,539.91v12.17h-2.45V550.9h0a3.66,3.66,0,0,1-.93,1,2.37,2.37,0,0,1-1.38.37,2.65,2.65,0,0,1-.91-.16,2.17,2.17,0,0,1-.82-.51,2.67,2.67,0,0,1-.57-.93,3.91,3.91,0,0,1-.22-1.38v-9.33h2.45v8.42a1.69,1.69,0,0,0,.31,1.06,1.11,1.11,0,0,0,.89.38,1,1,0,0,0,1-.43,2.38,2.38,0,0,0,.26-1.25v-8.18Z"/><path class="cls-1" d="M117.68,552.08v-1.25h-.05a4.41,4.41,0,0,1-1,1,2.31,2.31,0,0,1-1.38.36,3,3,0,0,1-.88-.13,2.31,2.31,0,0,1-.85-.49,2.42,2.42,0,0,1-.66-1,4.67,4.67,0,0,1-.25-1.64,8.77,8.77,0,0,1,.17-1.81,2.91,2.91,0,0,1,.62-1.31,2.6,2.6,0,0,1,1.18-.76,6.22,6.22,0,0,1,1.89-.25h.27a1,1,0,0,1,.26,0l.29,0,.36,0v-1.27a1.92,1.92,0,0,0-.26-1,1.07,1.07,0,0,0-1-.41,1.45,1.45,0,0,0-.88.31,1.58,1.58,0,0,0-.52.92h-2.37a3.89,3.89,0,0,1,1.1-2.64,3.5,3.5,0,0,1,1.15-.76,4.07,4.07,0,0,1,1.52-.28,4.27,4.27,0,0,1,1.44.24,3.28,3.28,0,0,1,1.17.72,3.49,3.49,0,0,1,.77,1.2,4.54,4.54,0,0,1,.29,1.68v8.48Zm0-5.24a4.92,4.92,0,0,0-.67-.07,2.49,2.49,0,0,0-1.36.37,1.52,1.52,0,0,0-.56,1.36,1.83,1.83,0,0,0,.33,1.13,1.13,1.13,0,0,0,.94.43,1.2,1.2,0,0,0,1-.41,1.72,1.72,0,0,0,.35-1.15Z"/><path class="cls-1" d="M124.52,548.57a1.2,1.2,0,0,0,.32.89,1.21,1.21,0,0,0,.88.31,1,1,0,0,0,.93-.41,2.15,2.15,0,0,0,.27-.81h2.45a3.5,3.5,0,0,1-1,2.59,3.33,3.33,0,0,1-1.15.79,3.84,3.84,0,0,1-1.51.29,3.71,3.71,0,0,1-2-.48,3.29,3.29,0,0,1-1.24-1.27,3.15,3.15,0,0,1-.36-1.11,8.19,8.19,0,0,1-.1-1.36v-4a8.32,8.32,0,0,1,.1-1.37,3.1,3.1,0,0,1,.36-1.1,3.31,3.31,0,0,1,1.24-1.28,3.71,3.71,0,0,1,2-.48,4,4,0,0,1,1.53.29,3.51,3.51,0,0,1,1.16.79,4.08,4.08,0,0,1,1,2.81h-2.45a1.59,1.59,0,0,0-.32-1.09,1.28,1.28,0,0,0-1.76,0,1.5,1.5,0,0,0-.32,1Z"/><path class="cls-1" d="M130.81,537.44V535h2.45v2.45Zm0,14.64V539.91h2.45v12.17Z"/><path class="cls-1" d="M135.06,544a9.65,9.65,0,0,1,.09-1.37,3.56,3.56,0,0,1,.36-1.1,3.31,3.31,0,0,1,1.24-1.28,4.22,4.22,0,0,1,3.91,0,3.31,3.31,0,0,1,1.24,1.28,3.56,3.56,0,0,1,.36,1.1,9.65,9.65,0,0,1,.09,1.37v4a9.5,9.5,0,0,1-.09,1.36,3.62,3.62,0,0,1-.36,1.11,3.29,3.29,0,0,1-1.24,1.27,4.22,4.22,0,0,1-3.91,0,3.29,3.29,0,0,1-1.24-1.27,3.62,3.62,0,0,1-.36-1.11,9.5,9.5,0,0,1-.09-1.36Zm2.08-5.69,2.16-3.38h2.6l-3.17,3.38Zm.36,10.08a1.46,1.46,0,0,0,.33,1,1.1,1.1,0,0,0,.87.35,1.12,1.12,0,0,0,.88-.35,1.46,1.46,0,0,0,.32-1V543.6a1.46,1.46,0,0,0-.32-1,1.16,1.16,0,0,0-.88-.35,1.14,1.14,0,0,0-.87.35,1.46,1.46,0,0,0-.33,1Z"/><path class="cls-1" d="M144.15,552.08V539.91h2.45v1.17h.05a3.3,3.3,0,0,1,.92-.94,2.37,2.37,0,0,1,1.38-.38,2.86,2.86,0,0,1,.91.16,2,2,0,0,1,.82.52,2.64,2.64,0,0,1,.58.92,4,4,0,0,1,.21,1.38v9.34H149v-8.43a1.58,1.58,0,0,0-.31-1,1.07,1.07,0,0,0-.89-.39,1.06,1.06,0,0,0-1,.43,2.5,2.5,0,0,0-.26,1.25v8.19Z"/><path class="cls-1" d="M162.82,552.08V551l-.45.49a2.55,2.55,0,0,1-.48.4,2.32,2.32,0,0,1-.6.26,2.71,2.71,0,0,1-.79.1,2.19,2.19,0,0,1-2.14-1.15,3.25,3.25,0,0,1-.31-1,9.88,9.88,0,0,1-.1-1.61v-4.63c0-.88,0-1.53.07-1.94a2.35,2.35,0,0,1,1.13-1.8,2.43,2.43,0,0,1,1.37-.32,2.46,2.46,0,0,1,1.28.33,3,3,0,0,1,1,.92h0v-6h2.45v17.09Zm-2.42-4a2.27,2.27,0,0,0,.29,1.2,1,1,0,0,0,.91.45,1.09,1.09,0,0,0,.89-.42,1.71,1.71,0,0,0,.33-1.09v-4.73a1.35,1.35,0,0,0-.34-.95,1.2,1.2,0,0,0-.88-.37,1,1,0,0,0-.95.43,2,2,0,0,0-.25,1Z"/><path class="cls-1" d="M174.37,546.92h-4.85v1.65a1.2,1.2,0,0,0,.32.89,1.21,1.21,0,0,0,.88.31,1,1,0,0,0,.92-.41,2,2,0,0,0,.28-.81h2.45a3.5,3.5,0,0,1-1,2.59,3.33,3.33,0,0,1-1.15.79,3.84,3.84,0,0,1-1.51.29,3.77,3.77,0,0,1-2-.48,3.33,3.33,0,0,1-1.23-1.27,3.15,3.15,0,0,1-.36-1.11,8.19,8.19,0,0,1-.1-1.36v-4a8.32,8.32,0,0,1,.1-1.37,3.1,3.1,0,0,1,.36-1.1,3.36,3.36,0,0,1,1.23-1.28,3.77,3.77,0,0,1,2-.48,3.89,3.89,0,0,1,1.52.29,3.45,3.45,0,0,1,1.17.79,4,4,0,0,1,1,2.72ZM169.52,545h2.4v-1.4a1.5,1.5,0,0,0-.32-1,1.28,1.28,0,0,0-1.76,0,1.5,1.5,0,0,0-.32,1Z"/><path class="cls-1" d="M73,560h2.45v13.65a1.34,1.34,0,0,0,.25,1,1.61,1.61,0,0,0,1,.33v2.3a7.72,7.72,0,0,1-1.51-.13,2.58,2.58,0,0,1-1.15-.52,2.26,2.26,0,0,1-.74-1,5.17,5.17,0,0,1-.25-1.74Z"/><path class="cls-1" d="M77.43,569a9.57,9.57,0,0,1,.1-1.37,3.1,3.1,0,0,1,.36-1.1,3.31,3.31,0,0,1,1.24-1.28,3.71,3.71,0,0,1,2-.48,3.77,3.77,0,0,1,2,.48,3.29,3.29,0,0,1,1.23,1.28,3.1,3.1,0,0,1,.36,1.1,8.32,8.32,0,0,1,.1,1.37v4a8.19,8.19,0,0,1-.1,1.36,3.15,3.15,0,0,1-.36,1.11A3.26,3.26,0,0,1,83,576.74a3.77,3.77,0,0,1-2,.48,3.71,3.71,0,0,1-2-.48,3.29,3.29,0,0,1-1.24-1.27,3.15,3.15,0,0,1-.36-1.11,9.43,9.43,0,0,1-.1-1.36Zm2.45,4.39a1.46,1.46,0,0,0,.33,1,1.09,1.09,0,0,0,.87.35,1.12,1.12,0,0,0,.88-.35,1.5,1.5,0,0,0,.32-1V568.6a1.5,1.5,0,0,0-.32-1,1.16,1.16,0,0,0-.88-.35,1.12,1.12,0,0,0-.87.35,1.46,1.46,0,0,0-.33,1Z"/><path class="cls-1" d="M91,568.32a1.23,1.23,0,0,0-.4-.94,1.26,1.26,0,0,0-.85-.31,1.1,1.1,0,0,0-.89.37,1.33,1.33,0,0,0-.31.85,1.41,1.41,0,0,0,.17.66,1.56,1.56,0,0,0,.86.59l1.44.58a3.48,3.48,0,0,1,1.89,1.44,4,4,0,0,1,.51,2,3.75,3.75,0,0,1-.27,1.43,4,4,0,0,1-.76,1.16,3.33,3.33,0,0,1-1.15.79,3.73,3.73,0,0,1-1.46.29,3.5,3.5,0,0,1-2.5-.94,3.34,3.34,0,0,1-.82-1.14,4.05,4.05,0,0,1-.33-1.59h2.3a2.39,2.39,0,0,0,.35.93,1.06,1.06,0,0,0,1,.44,1.47,1.47,0,0,0,1-.35,1.19,1.19,0,0,0,.42-1,1.47,1.47,0,0,0-.26-.87,2.07,2.07,0,0,0-1-.62l-1.18-.43a4,4,0,0,1-1.81-1.29,3.29,3.29,0,0,1-.66-2.07,3.53,3.53,0,0,1,1.08-2.57,3.06,3.06,0,0,1,1.13-.73,3.74,3.74,0,0,1,1.39-.26,3.54,3.54,0,0,1,1.38.27,3.06,3.06,0,0,1,1.09.74,3.67,3.67,0,0,1,1,2.55Z"/><path class="cls-1" d="M99.44,577.08V564.91h2.45v1.17h0a3.3,3.3,0,0,1,.92-.94,2.37,2.37,0,0,1,1.38-.38,2.15,2.15,0,0,1,1.32.39,3.87,3.87,0,0,1,.87.84,4.85,4.85,0,0,1,1-.87,2.81,2.81,0,0,1,1.54-.36,3.25,3.25,0,0,1,.94.16,2.26,2.26,0,0,1,.86.52,2.71,2.71,0,0,1,.62.92,3.55,3.55,0,0,1,.24,1.38v9.34h-2.44v-8.43a1.59,1.59,0,0,0-.32-1,1.25,1.25,0,0,0-1.85,0,2.5,2.5,0,0,0-.26,1.25v8.19h-2.45v-8.43a1.58,1.58,0,0,0-.31-1,1.07,1.07,0,0,0-.89-.39,1.06,1.06,0,0,0-1,.43,2.5,2.5,0,0,0-.26,1.25v8.19Z"/><path class="cls-1" d="M118.28,577.08v-1.25h0a4.41,4.41,0,0,1-1,1,2.31,2.31,0,0,1-1.38.36,3,3,0,0,1-.88-.13,2.31,2.31,0,0,1-.85-.49,2.42,2.42,0,0,1-.66-1,4.67,4.67,0,0,1-.25-1.64,8.77,8.77,0,0,1,.17-1.81,2.91,2.91,0,0,1,.62-1.31,2.6,2.6,0,0,1,1.18-.76,6.27,6.27,0,0,1,1.89-.25h.27a1,1,0,0,1,.26,0l.29,0,.36,0v-1.27a1.92,1.92,0,0,0-.26-1,1.07,1.07,0,0,0-1-.41,1.45,1.45,0,0,0-.88.31,1.52,1.52,0,0,0-.51.92h-2.38a3.89,3.89,0,0,1,1.1-2.64,3.5,3.5,0,0,1,1.15-.76,4.07,4.07,0,0,1,1.52-.28,4.27,4.27,0,0,1,1.44.24,3.28,3.28,0,0,1,1.17.72,3.49,3.49,0,0,1,.77,1.2,4.54,4.54,0,0,1,.29,1.68v8.48Zm0-5.24a4.92,4.92,0,0,0-.67-.07,2.49,2.49,0,0,0-1.36.37,1.52,1.52,0,0,0-.56,1.36,1.83,1.83,0,0,0,.33,1.13,1.13,1.13,0,0,0,.94.43,1.2,1.2,0,0,0,1-.41,1.67,1.67,0,0,0,.35-1.15Z"/><path class="cls-1" d="M122.53,564.91v-3.7H125v3.7h1.51v1.92H125v6.74a2,2,0,0,0,.08.67.68.68,0,0,0,.28.36,1,1,0,0,0,.47.15l.68,0v2.31h-1a3.21,3.21,0,0,1-1.4-.27,2.42,2.42,0,0,1-.9-.67,2.48,2.48,0,0,1-.49-.92,3.31,3.31,0,0,1-.16-1v-7.39h-1.22v-1.92Z"/><path class="cls-1" d="M134.5,571.92h-4.84v1.65a1.2,1.2,0,0,0,.32.89,1.21,1.21,0,0,0,.88.31,1,1,0,0,0,.92-.41,2.37,2.37,0,0,0,.28-.81h2.44a3.49,3.49,0,0,1-1,2.59,3.33,3.33,0,0,1-1.15.79,3.84,3.84,0,0,1-1.51.29,3.77,3.77,0,0,1-2-.48,3.19,3.19,0,0,1-1.23-1.27,3.15,3.15,0,0,1-.36-1.11,8.19,8.19,0,0,1-.1-1.36v-4a8.32,8.32,0,0,1,.1-1.37,3.1,3.1,0,0,1,.36-1.1,3.22,3.22,0,0,1,1.23-1.28,3.77,3.77,0,0,1,2-.48,3.92,3.92,0,0,1,1.52.29,3.41,3.41,0,0,1,1.16.79,4,4,0,0,1,1,2.72ZM129.66,570h2.4v-1.4a1.46,1.46,0,0,0-.33-1,1.12,1.12,0,0,0-.87-.35,1.16,1.16,0,0,0-.88.35,1.5,1.5,0,0,0-.32,1Z"/><path class="cls-1" d="M136.3,577.08V564.91h2.45v1.29a7.61,7.61,0,0,1,1.47-1.05,3.68,3.68,0,0,1,1.77-.39v2.6a1.92,1.92,0,0,0-.74-.15,3.24,3.24,0,0,0-.83.13,2.12,2.12,0,0,0-.8.45,2.33,2.33,0,0,0-.63.81,2.93,2.93,0,0,0-.24,1.25v7.23Z"/><path class="cls-1" d="M143,562.44V560h2.44v2.45Zm0,14.64V564.91h2.44v12.17Z"/><path class="cls-1" d="M152.07,577.08v-1.25h0a4.41,4.41,0,0,1-1,1,2.31,2.31,0,0,1-1.38.36,2.91,2.91,0,0,1-.87-.13,2.35,2.35,0,0,1-.86-.49,2.42,2.42,0,0,1-.66-1A4.67,4.67,0,0,1,147,574a8.77,8.77,0,0,1,.17-1.81,2.91,2.91,0,0,1,.62-1.31,2.6,2.6,0,0,1,1.18-.76,6.29,6.29,0,0,1,1.9-.25h.26a1,1,0,0,1,.26,0l.29,0,.36,0v-1.27a1.92,1.92,0,0,0-.26-1,1.07,1.07,0,0,0-1-.41,1.45,1.45,0,0,0-.88.31,1.52,1.52,0,0,0-.51.92h-2.38a3.89,3.89,0,0,1,1.1-2.64,3.44,3.44,0,0,1,1.16-.76,4,4,0,0,1,1.51-.28,4.27,4.27,0,0,1,1.44.24,3.2,3.2,0,0,1,1.17.72,3.49,3.49,0,0,1,.77,1.2,4.54,4.54,0,0,1,.29,1.68v8.48Zm0-5.24a4.92,4.92,0,0,0-.67-.07,2.49,2.49,0,0,0-1.36.37,1.52,1.52,0,0,0-.56,1.36,1.77,1.77,0,0,0,.34,1.13,1.1,1.1,0,0,0,.93.43,1.2,1.2,0,0,0,1-.41,1.67,1.67,0,0,0,.35-1.15Z"/><path class="cls-1" d="M156.18,560h2.44v13.65a1.33,1.33,0,0,0,.26,1,1.55,1.55,0,0,0,.94.33v2.3a7.72,7.72,0,0,1-1.51-.13,2.58,2.58,0,0,1-1.15-.52,2.24,2.24,0,0,1-.73-1,4.93,4.93,0,0,1-.25-1.74Z"/><path class="cls-1" d="M167.86,571.92H163v1.65a1.16,1.16,0,0,0,.32.89,1.21,1.21,0,0,0,.88.31,1,1,0,0,0,.92-.41,2.37,2.37,0,0,0,.28-.81h2.44a3.49,3.49,0,0,1-1,2.59,3.33,3.33,0,0,1-1.15.79,3.84,3.84,0,0,1-1.51.29,3.77,3.77,0,0,1-2-.48,3.29,3.29,0,0,1-1.24-1.27,3.62,3.62,0,0,1-.36-1.11,9.5,9.5,0,0,1-.09-1.36v-4a9.65,9.65,0,0,1,.09-1.37,3.56,3.56,0,0,1,.36-1.1,3.31,3.31,0,0,1,1.24-1.28,3.77,3.77,0,0,1,2-.48,3.92,3.92,0,0,1,1.52.29,3.41,3.41,0,0,1,1.16.79,4,4,0,0,1,1,2.72ZM163,570h2.4v-1.4a1.46,1.46,0,0,0-.33-1,1.14,1.14,0,0,0-.87-.35,1.16,1.16,0,0,0-.88.35,1.46,1.46,0,0,0-.32,1Z"/><path class="cls-1" d="M174.1,568.32a1.19,1.19,0,0,0-.39-.94,1.27,1.27,0,0,0-.85-.31,1.09,1.09,0,0,0-.89.37,1.27,1.27,0,0,0-.31.85,1.4,1.4,0,0,0,.16.66,1.59,1.59,0,0,0,.87.59l1.44.58a3.46,3.46,0,0,1,1.88,1.44,3.89,3.89,0,0,1,.52,2,3.58,3.58,0,0,1-.28,1.43,3.73,3.73,0,0,1-.75,1.16,3.37,3.37,0,0,1-1.16.79,3.66,3.66,0,0,1-1.46.29,3.53,3.53,0,0,1-2.5-.94,3.45,3.45,0,0,1-.81-1.14,4,4,0,0,1-.34-1.59h2.31a2.23,2.23,0,0,0,.34.93,1.08,1.08,0,0,0,1,.44,1.44,1.44,0,0,0,.94-.35,1.19,1.19,0,0,0,.42-1,1.4,1.4,0,0,0-.26-.87,2.07,2.07,0,0,0-1-.62l-1.18-.43a4.05,4.05,0,0,1-1.81-1.29,3.29,3.29,0,0,1-.66-2.07,3.53,3.53,0,0,1,1.08-2.57,3.14,3.14,0,0,1,1.13-.73,3.77,3.77,0,0,1,1.39-.26,3.47,3.47,0,0,1,1.38.27,3,3,0,0,1,1.09.74,3.35,3.35,0,0,1,.72,1.14,3.69,3.69,0,0,1,.27,1.41Z"/><path class="cls-1" d="M73.33,640.08V623h3.94q4.32,0,4.32,5a6.34,6.34,0,0,1-.47,2.57,3.63,3.63,0,0,1-1.65,1.71l2.64,7.8H79.52l-2.28-7.3H75.78v7.3Zm2.45-14.79v5.33h1.39a2.44,2.44,0,0,0,1-.18,1.33,1.33,0,0,0,.6-.52,2.33,2.33,0,0,0,.27-.82,9.41,9.41,0,0,0,.07-1.14,9.15,9.15,0,0,0-.07-1.14,2.42,2.42,0,0,0-.29-.86,2,2,0,0,0-1.73-.67Z"/><path class="cls-1" d="M90.49,634.92H85.64v1.65a1.11,1.11,0,0,0,1.2,1.2,1,1,0,0,0,.93-.41,2.15,2.15,0,0,0,.27-.81h2.45a3.53,3.53,0,0,1-1,2.59,3.37,3.37,0,0,1-1.16.79,3.8,3.8,0,0,1-1.51.29,3.71,3.71,0,0,1-2-.48,3.29,3.29,0,0,1-1.24-1.27,3.15,3.15,0,0,1-.36-1.11,9.43,9.43,0,0,1-.1-1.36v-4a9.57,9.57,0,0,1,.1-1.37,3.1,3.1,0,0,1,.36-1.1,3.31,3.31,0,0,1,1.24-1.28,3.71,3.71,0,0,1,2-.48,4,4,0,0,1,1.53.29,3.51,3.51,0,0,1,1.16.79,4,4,0,0,1,1,2.72ZM85.64,633H88v-1.4a1.5,1.5,0,0,0-.32-1,1.16,1.16,0,0,0-.88-.35,1.12,1.12,0,0,0-.87.35,1.46,1.46,0,0,0-.33,1Z"/><path class="cls-1" d="M94.88,636.57a1.11,1.11,0,0,0,1.2,1.2,1,1,0,0,0,.93-.41,2.15,2.15,0,0,0,.27-.81h2.45a3.53,3.53,0,0,1-1,2.59,3.46,3.46,0,0,1-1.16.79,3.8,3.8,0,0,1-1.51.29,3.71,3.71,0,0,1-2-.48,3.29,3.29,0,0,1-1.24-1.27,3.15,3.15,0,0,1-.36-1.11,9.43,9.43,0,0,1-.1-1.36v-4a9.57,9.57,0,0,1,.1-1.37,3.1,3.1,0,0,1,.36-1.1,3.31,3.31,0,0,1,1.24-1.28,3.71,3.71,0,0,1,2-.48,4,4,0,0,1,1.53.29,3.51,3.51,0,0,1,1.16.79,4.08,4.08,0,0,1,1,2.81H97.28a1.59,1.59,0,0,0-.32-1.09,1.16,1.16,0,0,0-.88-.35,1.12,1.12,0,0,0-.87.35,1.46,1.46,0,0,0-.33,1Z"/><path class="cls-1" d="M101,632a8.32,8.32,0,0,1,.1-1.37,3.1,3.1,0,0,1,.36-1.1,3.31,3.31,0,0,1,1.24-1.28,3.71,3.71,0,0,1,1.95-.48,3.77,3.77,0,0,1,2,.48,3.29,3.29,0,0,1,1.23,1.28,3.1,3.1,0,0,1,.36,1.1,8.32,8.32,0,0,1,.1,1.37v4a8.19,8.19,0,0,1-.1,1.36,3.15,3.15,0,0,1-.36,1.11,3.26,3.26,0,0,1-1.23,1.27,3.77,3.77,0,0,1-2,.48,3.71,3.71,0,0,1-1.95-.48,3.29,3.29,0,0,1-1.24-1.27,3.15,3.15,0,0,1-.36-1.11A8.19,8.19,0,0,1,101,636Zm2.45,4.39a1.46,1.46,0,0,0,.33,1,1.09,1.09,0,0,0,.87.35,1.12,1.12,0,0,0,.88-.35,1.5,1.5,0,0,0,.32-1V631.6a1.5,1.5,0,0,0-.32-1,1.16,1.16,0,0,0-.88-.35,1.12,1.12,0,0,0-.87.35,1.46,1.46,0,0,0-.33,1Z"/><path class="cls-1" d="M110.05,640.08V627.91h2.45v1.17h0a3.47,3.47,0,0,1,.93-.94,2.37,2.37,0,0,1,1.38-.38,2.15,2.15,0,0,1,1.32.39,3.62,3.62,0,0,1,.86.84,5.17,5.17,0,0,1,1-.87,2.81,2.81,0,0,1,1.54-.36,3.13,3.13,0,0,1,.93.16,2.3,2.3,0,0,1,.87.52,2.71,2.71,0,0,1,.62.92,3.55,3.55,0,0,1,.24,1.38v9.34h-2.45v-8.43a1.58,1.58,0,0,0-.31-1,1.07,1.07,0,0,0-.89-.39,1.06,1.06,0,0,0-1,.43,2.5,2.5,0,0,0-.26,1.25v8.19h-2.45v-8.43a1.58,1.58,0,0,0-.31-1,1.08,1.08,0,0,0-.89-.39,1.06,1.06,0,0,0-1,.43,2.4,2.4,0,0,0-.26,1.25v8.19Z"/><path class="cls-1" d="M131.34,634.92h-4.85v1.65a1.2,1.2,0,0,0,.32.89,1.21,1.21,0,0,0,.88.31,1,1,0,0,0,.92-.41,2,2,0,0,0,.28-.81h2.45a3.5,3.5,0,0,1-1,2.59,3.33,3.33,0,0,1-1.15.79,3.84,3.84,0,0,1-1.51.29,3.77,3.77,0,0,1-2-.48,3.33,3.33,0,0,1-1.23-1.27,3.15,3.15,0,0,1-.36-1.11A8.19,8.19,0,0,1,124,636v-4a8.32,8.32,0,0,1,.1-1.37,3.1,3.1,0,0,1,.36-1.1,3.36,3.36,0,0,1,1.23-1.28,3.77,3.77,0,0,1,2-.48,3.89,3.89,0,0,1,1.52.29,3.45,3.45,0,0,1,1.17.79,4,4,0,0,1,1,2.72ZM126.49,633h2.4v-1.4a1.46,1.46,0,0,0-.33-1,1.12,1.12,0,0,0-.87-.35,1.16,1.16,0,0,0-.88.35,1.5,1.5,0,0,0-.32,1Z"/><path class="cls-1" d="M133.14,640.08V627.91h2.44v1.17h0a3.47,3.47,0,0,1,.93-.94,2.37,2.37,0,0,1,1.38-.38,3,3,0,0,1,.91.16,2.19,2.19,0,0,1,.82.52,2.62,2.62,0,0,1,.57.92,4,4,0,0,1,.22,1.38v9.34H138v-8.43a1.64,1.64,0,0,0-.31-1,1.08,1.08,0,0,0-.89-.39,1,1,0,0,0-1,.43,2.39,2.39,0,0,0-.27,1.25v8.19Z"/><path class="cls-1" d="M147.34,640.08V639l-.45.49a2.55,2.55,0,0,1-.48.4,2.32,2.32,0,0,1-.6.26,2.71,2.71,0,0,1-.79.1,2.19,2.19,0,0,1-2.14-1.15,3.25,3.25,0,0,1-.31-1,9.88,9.88,0,0,1-.1-1.61v-4.63c0-.88,0-1.53.07-1.94a2.35,2.35,0,0,1,1.13-1.8,2.43,2.43,0,0,1,1.37-.32,2.46,2.46,0,0,1,1.28.33,3,3,0,0,1,1,.92h0v-6h2.45v17.09Zm-2.42-4a2.27,2.27,0,0,0,.29,1.2,1,1,0,0,0,.91.45,1.09,1.09,0,0,0,.89-.42,1.71,1.71,0,0,0,.33-1.09v-4.73a1.35,1.35,0,0,0-.34-.95,1.2,1.2,0,0,0-.88-.37,1,1,0,0,0-1,.43,2,2,0,0,0-.25,1Z"/><path class="cls-1" d="M156.44,640.08v-1.25h-.05a4.41,4.41,0,0,1-1,1,2.31,2.31,0,0,1-1.38.36,3,3,0,0,1-.88-.13,2.31,2.31,0,0,1-.85-.49,2.42,2.42,0,0,1-.66-1,4.45,4.45,0,0,1-.25-1.64,8.77,8.77,0,0,1,.17-1.81,2.91,2.91,0,0,1,.62-1.31,2.6,2.6,0,0,1,1.18-.76,6.22,6.22,0,0,1,1.89-.25h.27a1.09,1.09,0,0,1,.26,0l.29,0,.36,0v-1.27a1.92,1.92,0,0,0-.26-1,1.07,1.07,0,0,0-1-.41,1.43,1.43,0,0,0-.88.31,1.53,1.53,0,0,0-.52.92h-2.37a3.89,3.89,0,0,1,1.1-2.64,3.5,3.5,0,0,1,1.15-.76,4.07,4.07,0,0,1,1.52-.28,4.27,4.27,0,0,1,1.44.24,3.28,3.28,0,0,1,1.17.72,3.49,3.49,0,0,1,.77,1.2,4.54,4.54,0,0,1,.29,1.68v8.48Zm0-5.24a5.08,5.08,0,0,0-.67-.07,2.49,2.49,0,0,0-1.36.37,1.52,1.52,0,0,0-.56,1.36,1.83,1.83,0,0,0,.33,1.13,1.13,1.13,0,0,0,.94.43,1.2,1.2,0,0,0,1-.41,1.72,1.72,0,0,0,.35-1.15Z"/><path class="cls-1" d="M163.28,636.57a1.2,1.2,0,0,0,.32.89,1.21,1.21,0,0,0,.88.31,1,1,0,0,0,.92-.41,2,2,0,0,0,.28-.81h2.45a3.5,3.5,0,0,1-1,2.59,3.33,3.33,0,0,1-1.15.79,3.84,3.84,0,0,1-1.51.29,3.77,3.77,0,0,1-2-.48,3.33,3.33,0,0,1-1.23-1.27,3.15,3.15,0,0,1-.36-1.11,8.19,8.19,0,0,1-.1-1.36v-4a8.32,8.32,0,0,1,.1-1.37,3.1,3.1,0,0,1,.36-1.1,3.36,3.36,0,0,1,1.23-1.28,3.77,3.77,0,0,1,2-.48,3.89,3.89,0,0,1,1.52.29,3.45,3.45,0,0,1,1.17.79,4.08,4.08,0,0,1,1,2.81h-2.45a1.59,1.59,0,0,0-.32-1.09,1.28,1.28,0,0,0-1.76,0,1.5,1.5,0,0,0-.32,1Z"/><path class="cls-1" d="M169.57,625.44V623H172v2.45Zm0,14.64V627.91H172v12.17Z"/><path class="cls-1" d="M173.82,632a9.65,9.65,0,0,1,.09-1.37,3.56,3.56,0,0,1,.36-1.1,3.31,3.31,0,0,1,1.24-1.28,4.22,4.22,0,0,1,3.91,0,3.31,3.31,0,0,1,1.24,1.28,3.56,3.56,0,0,1,.36,1.1,9.65,9.65,0,0,1,.09,1.37v4a9.5,9.5,0,0,1-.09,1.36,3.62,3.62,0,0,1-.36,1.11,3.29,3.29,0,0,1-1.24,1.27,4.22,4.22,0,0,1-3.91,0,3.29,3.29,0,0,1-1.24-1.27,3.62,3.62,0,0,1-.36-1.11,9.5,9.5,0,0,1-.09-1.36Zm2.44,4.39a1.46,1.46,0,0,0,.33,1,1.1,1.1,0,0,0,.87.35,1.12,1.12,0,0,0,.88-.35,1.46,1.46,0,0,0,.32-1V631.6a1.46,1.46,0,0,0-.32-1,1.16,1.16,0,0,0-.88-.35,1.14,1.14,0,0,0-.87.35,1.46,1.46,0,0,0-.33,1Z"/><path class="cls-1" d="M182.91,640.08V627.91h2.45v1.17h0a3.3,3.3,0,0,1,.92-.94,2.37,2.37,0,0,1,1.38-.38,2.86,2.86,0,0,1,.91.16,2,2,0,0,1,.82.52,2.64,2.64,0,0,1,.58.92,4,4,0,0,1,.21,1.38v9.34h-2.45v-8.43a1.58,1.58,0,0,0-.31-1,1.07,1.07,0,0,0-.89-.39,1.06,1.06,0,0,0-1,.43,2.5,2.5,0,0,0-.26,1.25v8.19Z"/><path class="cls-1" d="M199.33,634.92h-4.85v1.65a1.2,1.2,0,0,0,.32.89,1.21,1.21,0,0,0,.88.31,1,1,0,0,0,.92-.41,2,2,0,0,0,.28-.81h2.45a3.5,3.5,0,0,1-1,2.59,3.33,3.33,0,0,1-1.15.79,3.84,3.84,0,0,1-1.51.29,3.77,3.77,0,0,1-2-.48,3.33,3.33,0,0,1-1.23-1.27,3.15,3.15,0,0,1-.36-1.11A8.19,8.19,0,0,1,192,636v-4a8.32,8.32,0,0,1,.1-1.37,3.1,3.1,0,0,1,.36-1.1,3.36,3.36,0,0,1,1.23-1.28,3.77,3.77,0,0,1,2-.48,3.89,3.89,0,0,1,1.52.29,3.45,3.45,0,0,1,1.17.79,4,4,0,0,1,1,2.72ZM194.48,633h2.4v-1.4a1.5,1.5,0,0,0-.32-1,1.28,1.28,0,0,0-1.76,0,1.5,1.5,0,0,0-.32,1Z"/><path class="cls-1" d="M205.57,631.32a1.23,1.23,0,0,0-.4-.94,1.27,1.27,0,0,0-.85-.31,1.1,1.1,0,0,0-.89.37,1.27,1.27,0,0,0-.31.85,1.41,1.41,0,0,0,.17.66,1.56,1.56,0,0,0,.86.59l1.44.58a3.52,3.52,0,0,1,1.89,1.44,4,4,0,0,1,.51,2,3.75,3.75,0,0,1-.27,1.43,4,4,0,0,1-.76,1.16,3.33,3.33,0,0,1-1.15.79,3.74,3.74,0,0,1-1.47.29,3.49,3.49,0,0,1-2.49-.94,3.34,3.34,0,0,1-.82-1.14,3.88,3.88,0,0,1-.33-1.59H203a2.24,2.24,0,0,0,.35.93,1.06,1.06,0,0,0,1,.44,1.47,1.47,0,0,0,1-.35,1.19,1.19,0,0,0,.42-1,1.41,1.41,0,0,0-.27-.87,2,2,0,0,0-1-.62l-1.17-.43a4,4,0,0,1-1.81-1.29,3.29,3.29,0,0,1-.66-2.07,3.43,3.43,0,0,1,1.08-2.57A3.11,3.11,0,0,1,203,628a3.83,3.83,0,0,1,1.4-.26,3.54,3.54,0,0,1,1.38.27,3.15,3.15,0,0,1,1.09.74,3.69,3.69,0,0,1,.72,1.14,3.88,3.88,0,0,1,.26,1.41Z"/><path class="cls-1" d="M73.19,670V652.91h2.44V654a6.44,6.44,0,0,1,.94-.89,2.28,2.28,0,0,1,1.39-.36,2.24,2.24,0,0,1,2.14,1.16,3.19,3.19,0,0,1,.31,1,11.16,11.16,0,0,1,.1,1.61v4.63a17.38,17.38,0,0,1-.08,2,2.31,2.31,0,0,1-1.1,1.8,2.53,2.53,0,0,1-1.39.31,2.62,2.62,0,0,1-1.29-.32,3.06,3.06,0,0,1-1-.93h-.05v6Zm4.87-13.13a2.22,2.22,0,0,0-.29-1.2,1,1,0,0,0-.91-.46,1.08,1.08,0,0,0-.89.42,1.73,1.73,0,0,0-.34,1.09v4.73a1.34,1.34,0,0,0,.35.95,1.15,1.15,0,0,0,.88.37,1,1,0,0,0,1-.43,2,2,0,0,0,.25-1Z"/><path class="cls-1" d="M87.15,665.08v-1.25h0a4.44,4.44,0,0,1-1,1,2.27,2.27,0,0,1-1.38.36,3,3,0,0,1-.87-.13,2.4,2.4,0,0,1-1.51-1.47,4.43,4.43,0,0,1-.26-1.64,8.77,8.77,0,0,1,.17-1.81,2.82,2.82,0,0,1,.63-1.31,2.57,2.57,0,0,1,1.17-.76,6.29,6.29,0,0,1,1.9-.25h.26a1.12,1.12,0,0,1,.27,0l.28,0,.36,0v-1.27a1.83,1.83,0,0,0-.26-1,1.07,1.07,0,0,0-1-.41,1.45,1.45,0,0,0-.88.31,1.52,1.52,0,0,0-.51.92H82.16a3.9,3.9,0,0,1,1.11-2.64,3.39,3.39,0,0,1,1.15-.76,4,4,0,0,1,1.51-.28,4.27,4.27,0,0,1,1.44.24,3.32,3.32,0,0,1,1.18.72,3.47,3.47,0,0,1,.76,1.2,4.35,4.35,0,0,1,.29,1.68v8.48Zm0-5.24a4.92,4.92,0,0,0-.67-.07,2.43,2.43,0,0,0-1.35.37,1.5,1.5,0,0,0-.57,1.36,1.77,1.77,0,0,0,.34,1.13,1.1,1.1,0,0,0,.93.43,1.24,1.24,0,0,0,1-.41,1.72,1.72,0,0,0,.34-1.15Z"/><path class="cls-1" d="M91.4,665.08V652.91h2.45v1.29a7.57,7.57,0,0,1,1.46-1.05,3.72,3.72,0,0,1,1.78-.39v2.6a1.92,1.92,0,0,0-.74-.15,3.17,3.17,0,0,0-.83.13,2.16,2.16,0,0,0-.81.45,2.43,2.43,0,0,0-.62.81,2.93,2.93,0,0,0-.24,1.25v7.23Z"/><path class="cls-1" d="M102.56,665.08v-1.25h0a4.41,4.41,0,0,1-1,1,2.31,2.31,0,0,1-1.38.36,2.91,2.91,0,0,1-.87-.13,2.35,2.35,0,0,1-.86-.49,2.42,2.42,0,0,1-.66-1,4.67,4.67,0,0,1-.25-1.64,8.77,8.77,0,0,1,.17-1.81,2.91,2.91,0,0,1,.62-1.31,2.6,2.6,0,0,1,1.18-.76,6.29,6.29,0,0,1,1.9-.25h.26a1,1,0,0,1,.26,0l.29,0,.36,0v-1.27a1.92,1.92,0,0,0-.26-1,1.07,1.07,0,0,0-1-.41,1.45,1.45,0,0,0-.88.31,1.52,1.52,0,0,0-.51.92H97.57a3.89,3.89,0,0,1,1.1-2.64,3.44,3.44,0,0,1,1.16-.76,4,4,0,0,1,1.51-.28,4.27,4.27,0,0,1,1.44.24,3.2,3.2,0,0,1,1.17.72,3.49,3.49,0,0,1,.77,1.2,4.54,4.54,0,0,1,.29,1.68v8.48Zm0-5.24a4.92,4.92,0,0,0-.67-.07,2.49,2.49,0,0,0-1.36.37,1.52,1.52,0,0,0-.56,1.36,1.77,1.77,0,0,0,.34,1.13,1.1,1.1,0,0,0,.93.43,1.2,1.2,0,0,0,1-.41,1.67,1.67,0,0,0,.35-1.15Z"/><path class="cls-1" d="M111.13,648h2.45v13.65a1.34,1.34,0,0,0,.25,1,1.58,1.58,0,0,0,1,.33v2.3a7.66,7.66,0,0,1-1.51-.13,2.62,2.62,0,0,1-1.16-.52,2.24,2.24,0,0,1-.73-1,4.93,4.93,0,0,1-.25-1.74Z"/><path class="cls-1" d="M120.37,665.08v-1.25h-.05a4.41,4.41,0,0,1-1,1,2.31,2.31,0,0,1-1.38.36,3,3,0,0,1-.88-.13,2.31,2.31,0,0,1-.85-.49,2.42,2.42,0,0,1-.66-1,4.45,4.45,0,0,1-.25-1.64,8.13,8.13,0,0,1,.17-1.81,2.91,2.91,0,0,1,.62-1.31,2.6,2.6,0,0,1,1.18-.76,6.18,6.18,0,0,1,1.89-.25h.27a1.09,1.09,0,0,1,.26,0l.29,0,.36,0v-1.27a1.84,1.84,0,0,0-.27-1,1,1,0,0,0-.95-.41,1.41,1.41,0,0,0-.88.31,1.48,1.48,0,0,0-.52.92h-2.37a3.89,3.89,0,0,1,1.1-2.64,3.5,3.5,0,0,1,1.15-.76,4,4,0,0,1,1.52-.28,4.17,4.17,0,0,1,1.43.24,3.32,3.32,0,0,1,1.18.72,3.49,3.49,0,0,1,.77,1.2,4.54,4.54,0,0,1,.29,1.68v8.48Zm0-5.24a5.08,5.08,0,0,0-.67-.07,2.49,2.49,0,0,0-1.36.37,1.5,1.5,0,0,0-.56,1.36,1.83,1.83,0,0,0,.33,1.13,1.13,1.13,0,0,0,.94.43,1.22,1.22,0,0,0,1-.41,1.72,1.72,0,0,0,.35-1.15Z"/><path class="cls-1" d="M133.71,665.08v-1.25h-.05a4.41,4.41,0,0,1-1,1,2.31,2.31,0,0,1-1.38.36,2.91,2.91,0,0,1-.87-.13,2.35,2.35,0,0,1-.86-.49,2.42,2.42,0,0,1-.66-1,4.67,4.67,0,0,1-.25-1.64,8.77,8.77,0,0,1,.17-1.81,2.91,2.91,0,0,1,.62-1.31,2.6,2.6,0,0,1,1.18-.76,6.29,6.29,0,0,1,1.9-.25h.26a1,1,0,0,1,.26,0l.29,0,.36,0v-1.27a1.92,1.92,0,0,0-.26-1,1.07,1.07,0,0,0-1-.41,1.45,1.45,0,0,0-.88.31,1.52,1.52,0,0,0-.51.92h-2.38a3.89,3.89,0,0,1,1.1-2.64A3.44,3.44,0,0,1,131,653a4,4,0,0,1,1.51-.28,4.27,4.27,0,0,1,1.44.24,3.2,3.2,0,0,1,1.17.72,3.49,3.49,0,0,1,.77,1.2,4.54,4.54,0,0,1,.29,1.68v8.48Zm0-5.24a4.92,4.92,0,0,0-.67-.07,2.49,2.49,0,0,0-1.36.37,1.52,1.52,0,0,0-.56,1.36,1.77,1.77,0,0,0,.34,1.13,1.1,1.1,0,0,0,.93.43,1.2,1.2,0,0,0,1-.41,1.67,1.67,0,0,0,.35-1.15Z"/><path class="cls-1" d="M138,652.91v-3.7h2.45v3.7h1.51v1.92h-1.51v6.74a2.3,2.3,0,0,0,.08.67.68.68,0,0,0,.28.36,1.09,1.09,0,0,0,.47.15l.68,0v2.31h-1a3.21,3.21,0,0,1-1.4-.27,2.42,2.42,0,0,1-.9-.67,2.48,2.48,0,0,1-.49-.92,3.31,3.31,0,0,1-.16-1v-7.39h-1.22v-1.92Z"/><path class="cls-1" d="M149.94,659.92h-4.85v1.65a1.2,1.2,0,0,0,.32.89,1.21,1.21,0,0,0,.88.31,1,1,0,0,0,.92-.41,2.18,2.18,0,0,0,.28-.81h2.45a3.5,3.5,0,0,1-1,2.59,3.33,3.33,0,0,1-1.15.79,3.84,3.84,0,0,1-1.51.29,3.77,3.77,0,0,1-2-.48,3.26,3.26,0,0,1-1.23-1.27,3.15,3.15,0,0,1-.36-1.11,8.19,8.19,0,0,1-.1-1.36v-4a8.32,8.32,0,0,1,.1-1.37,3.1,3.1,0,0,1,.36-1.1,3.29,3.29,0,0,1,1.23-1.28,3.77,3.77,0,0,1,2-.48,3.89,3.89,0,0,1,1.52.29,3.45,3.45,0,0,1,1.17.79,4,4,0,0,1,1,2.72ZM145.09,658h2.4v-1.4a1.46,1.46,0,0,0-.33-1,1.12,1.12,0,0,0-.87-.35,1.16,1.16,0,0,0-.88.35,1.5,1.5,0,0,0-.32,1Z"/><path class="cls-1" d="M151.74,665.08V652.91h2.44v1.17h0a3.47,3.47,0,0,1,.93-.94,2.37,2.37,0,0,1,1.38-.38,3,3,0,0,1,.91.16,2.08,2.08,0,0,1,.81.52,2.5,2.5,0,0,1,.58.92,4,4,0,0,1,.22,1.38v9.34h-2.45v-8.43a1.64,1.64,0,0,0-.31-1,1.08,1.08,0,0,0-.89-.39,1,1,0,0,0-1,.43,2.39,2.39,0,0,0-.27,1.25v8.19Z"/><path class="cls-1" d="M163.66,661.57a1.16,1.16,0,0,0,.33.89,1.19,1.19,0,0,0,.87.31,1,1,0,0,0,.93-.41,2.15,2.15,0,0,0,.27-.81h2.45a3.53,3.53,0,0,1-1,2.59,3.42,3.42,0,0,1-1.15.79,3.89,3.89,0,0,1-1.52.29,3.73,3.73,0,0,1-2-.48,3.29,3.29,0,0,1-1.24-1.27,3.62,3.62,0,0,1-.36-1.11,9.5,9.5,0,0,1-.09-1.36v-4a9.65,9.65,0,0,1,.09-1.37,3.56,3.56,0,0,1,.36-1.1,3.31,3.31,0,0,1,1.24-1.28,3.73,3.73,0,0,1,2-.48,4,4,0,0,1,1.53.29,3.51,3.51,0,0,1,1.16.79,4.08,4.08,0,0,1,1,2.81h-2.45a1.54,1.54,0,0,0-.32-1.09,1.16,1.16,0,0,0-.88-.35,1.14,1.14,0,0,0-.87.35,1.46,1.46,0,0,0-.33,1Z"/><path class="cls-1" d="M170,650.44V648h2.45v2.45Zm0,14.64V652.91h2.45v12.17Z"/><path class="cls-1" d="M174.2,657a8.32,8.32,0,0,1,.1-1.37,3.1,3.1,0,0,1,.36-1.1,3.29,3.29,0,0,1,1.23-1.28,3.77,3.77,0,0,1,2-.48,3.71,3.71,0,0,1,2,.48,3.31,3.31,0,0,1,1.24,1.28,3.1,3.1,0,0,1,.36,1.1,9.57,9.57,0,0,1,.1,1.37v4a9.43,9.43,0,0,1-.1,1.36,3.15,3.15,0,0,1-.36,1.11,3.29,3.29,0,0,1-1.24,1.27,3.71,3.71,0,0,1-2,.48,3.77,3.77,0,0,1-2-.48,3.26,3.26,0,0,1-1.23-1.27,3.15,3.15,0,0,1-.36-1.11,8.19,8.19,0,0,1-.1-1.36Zm2.09-5.69,2.16-3.38H181l-3.17,3.38Zm.36,10.08a1.5,1.5,0,0,0,.32,1,1.12,1.12,0,0,0,.88.35,1.09,1.09,0,0,0,.87-.35,1.46,1.46,0,0,0,.33-1V656.6a1.46,1.46,0,0,0-.33-1,1.12,1.12,0,0,0-.87-.35,1.16,1.16,0,0,0-.88.35,1.5,1.5,0,0,0-.32,1Z"/><path class="cls-1" d="M183.3,665.08V652.91h2.44v1.17h0a3.47,3.47,0,0,1,.93-.94,2.37,2.37,0,0,1,1.38-.38,3,3,0,0,1,.91.16,2.08,2.08,0,0,1,.81.52,2.5,2.5,0,0,1,.58.92,4,4,0,0,1,.22,1.38v9.34h-2.45v-8.43a1.64,1.64,0,0,0-.31-1,1.08,1.08,0,0,0-.89-.39,1,1,0,0,0-1,.43,2.39,2.39,0,0,0-.27,1.25v8.19Z"/><path class="cls-1" d="M73.33,735.08V718h3.94q4.32,0,4.32,5a6.34,6.34,0,0,1-.47,2.57,3.63,3.63,0,0,1-1.65,1.71l2.64,7.8H79.52l-2.28-7.3H75.78v7.3Zm2.45-14.79v5.33h1.39a2.44,2.44,0,0,0,1-.18,1.33,1.33,0,0,0,.6-.52,2.33,2.33,0,0,0,.27-.82,9.41,9.41,0,0,0,.07-1.14,9.15,9.15,0,0,0-.07-1.14,2.42,2.42,0,0,0-.29-.86,2,2,0,0,0-1.73-.67Z"/><path class="cls-1" d="M90.49,729.92H85.64v1.65a1.11,1.11,0,0,0,1.2,1.2,1,1,0,0,0,.93-.41,2.15,2.15,0,0,0,.27-.81h2.45a3.53,3.53,0,0,1-1,2.59,3.37,3.37,0,0,1-1.16.79,3.8,3.8,0,0,1-1.51.29,3.71,3.71,0,0,1-2-.48,3.29,3.29,0,0,1-1.24-1.27,3.15,3.15,0,0,1-.36-1.11,9.43,9.43,0,0,1-.1-1.36v-4a9.57,9.57,0,0,1,.1-1.37,3.1,3.1,0,0,1,.36-1.1,3.31,3.31,0,0,1,1.24-1.28,3.71,3.71,0,0,1,2-.48,4,4,0,0,1,1.53.29,3.51,3.51,0,0,1,1.16.79,4,4,0,0,1,1,2.72ZM85.64,728H88v-1.4a1.5,1.5,0,0,0-.32-1,1.16,1.16,0,0,0-.88-.35,1.12,1.12,0,0,0-.87.35,1.46,1.46,0,0,0-.33,1Z"/><path class="cls-1" d="M92.6,735.08V724.83H91.4v-1.92h1.2v-1.66a3.72,3.72,0,0,1,.27-1.5,2.7,2.7,0,0,1,.72-1,2.4,2.4,0,0,1,1-.57,3.85,3.85,0,0,1,1.17-.17h1.12v2.3h-1.1q-.72,0-.72.84v1.78h1.82v1.92H95.05v10.25Z"/><path class="cls-1" d="M104.7,729.92H99.85v1.65a1.2,1.2,0,0,0,.32.89,1.21,1.21,0,0,0,.88.31,1,1,0,0,0,.92-.41,2.18,2.18,0,0,0,.28-.81h2.45a3.5,3.5,0,0,1-1,2.59,3.33,3.33,0,0,1-1.15.79,3.84,3.84,0,0,1-1.51.29,3.77,3.77,0,0,1-2-.48,3.33,3.33,0,0,1-1.23-1.27,3.15,3.15,0,0,1-.36-1.11,8.19,8.19,0,0,1-.1-1.36v-4a8.32,8.32,0,0,1,.1-1.37,3.1,3.1,0,0,1,.36-1.1,3.36,3.36,0,0,1,1.23-1.28,3.77,3.77,0,0,1,2-.48,3.89,3.89,0,0,1,1.52.29,3.45,3.45,0,0,1,1.17.79,4,4,0,0,1,1,2.72ZM99.85,728h2.4v-1.4a1.46,1.46,0,0,0-.33-1,1.12,1.12,0,0,0-.87-.35,1.16,1.16,0,0,0-.88.35,1.5,1.5,0,0,0-.32,1Z"/><path class="cls-1" d="M106.5,735.08V722.91h2.44v1.29a7.61,7.61,0,0,1,1.47-1.05,3.68,3.68,0,0,1,1.77-.39v2.6a1.88,1.88,0,0,0-.74-.15,3.24,3.24,0,0,0-.83.13,2.2,2.2,0,0,0-.8.45,2.33,2.33,0,0,0-.63.81,2.93,2.93,0,0,0-.24,1.25v7.23Z"/><path class="cls-1" d="M120.25,729.92H115.4v1.65a1.2,1.2,0,0,0,.32.89,1.21,1.21,0,0,0,.88.31,1,1,0,0,0,.92-.41,2,2,0,0,0,.28-.81h2.45a3.5,3.5,0,0,1-1,2.59,3.33,3.33,0,0,1-1.15.79,3.84,3.84,0,0,1-1.51.29,3.77,3.77,0,0,1-2-.48,3.33,3.33,0,0,1-1.23-1.27,3.15,3.15,0,0,1-.36-1.11A8.19,8.19,0,0,1,113,731v-4a8.32,8.32,0,0,1,.1-1.37,3.1,3.1,0,0,1,.36-1.1,3.36,3.36,0,0,1,1.23-1.28,3.77,3.77,0,0,1,2-.48,3.89,3.89,0,0,1,1.52.29,3.45,3.45,0,0,1,1.17.79,4,4,0,0,1,1,2.72ZM115.4,728h2.4v-1.4a1.5,1.5,0,0,0-.32-1,1.28,1.28,0,0,0-1.76,0,1.5,1.5,0,0,0-.32,1Z"/><path class="cls-1" d="M122.05,735.08V722.91h2.45v1.17h0a3.47,3.47,0,0,1,.93-.94,2.37,2.37,0,0,1,1.38-.38,2.91,2.91,0,0,1,.91.16,2.12,2.12,0,0,1,.82.52,2.48,2.48,0,0,1,.57.92,3.77,3.77,0,0,1,.22,1.38v9.34h-2.45v-8.43a1.58,1.58,0,0,0-.31-1,1.08,1.08,0,0,0-.89-.39,1.06,1.06,0,0,0-1,.43,2.4,2.4,0,0,0-.26,1.25v8.19Z"/><path class="cls-1" d="M134,731.57a1.16,1.16,0,0,0,.32.89,1.21,1.21,0,0,0,.88.31,1,1,0,0,0,.92-.41,2.37,2.37,0,0,0,.28-.81h2.44a3.49,3.49,0,0,1-1,2.59,3.33,3.33,0,0,1-1.15.79,3.84,3.84,0,0,1-1.51.29,3.77,3.77,0,0,1-2-.48,3.29,3.29,0,0,1-1.24-1.27,3.62,3.62,0,0,1-.36-1.11,9.5,9.5,0,0,1-.09-1.36v-4a9.65,9.65,0,0,1,.09-1.37,3.56,3.56,0,0,1,.36-1.1,3.31,3.31,0,0,1,1.24-1.28,3.77,3.77,0,0,1,2-.48,3.92,3.92,0,0,1,1.52.29,3.41,3.41,0,0,1,1.16.79,4.08,4.08,0,0,1,1,2.81h-2.44a1.54,1.54,0,0,0-.33-1.09,1.14,1.14,0,0,0-.87-.35,1.16,1.16,0,0,0-.88.35,1.46,1.46,0,0,0-.32,1Z"/><path class="cls-1" d="M140.26,720.44V718h2.45v2.45Zm0,14.64V722.91h2.45v12.17Z"/><path class="cls-1" d="M149.36,735.08v-1.25h-.05a4.41,4.41,0,0,1-1,1,2.31,2.31,0,0,1-1.38.36,3,3,0,0,1-.88-.13,2.31,2.31,0,0,1-.85-.49,2.42,2.42,0,0,1-.66-1,4.45,4.45,0,0,1-.25-1.64,8.77,8.77,0,0,1,.17-1.81,2.91,2.91,0,0,1,.62-1.31,2.6,2.6,0,0,1,1.18-.76,6.22,6.22,0,0,1,1.89-.25h.27a1.09,1.09,0,0,1,.26,0l.29,0,.36,0v-1.27a1.92,1.92,0,0,0-.26-1,1.07,1.07,0,0,0-1-.41,1.43,1.43,0,0,0-.88.31,1.53,1.53,0,0,0-.52.92h-2.37a3.89,3.89,0,0,1,1.1-2.64,3.5,3.5,0,0,1,1.15-.76,4.07,4.07,0,0,1,1.52-.28,4.27,4.27,0,0,1,1.44.24,3.28,3.28,0,0,1,1.17.72,3.49,3.49,0,0,1,.77,1.2,4.54,4.54,0,0,1,.29,1.68v8.48Zm0-5.24a5.08,5.08,0,0,0-.67-.07,2.49,2.49,0,0,0-1.36.37,1.52,1.52,0,0,0-.56,1.36,1.83,1.83,0,0,0,.33,1.13,1.13,1.13,0,0,0,.94.43,1.2,1.2,0,0,0,1-.41,1.72,1.72,0,0,0,.35-1.15Z"/><path class="cls-1" d="M158.05,726.32a1.23,1.23,0,0,0-.4-.94,1.27,1.27,0,0,0-.85-.31,1.1,1.1,0,0,0-.89.37,1.27,1.27,0,0,0-.31.85,1.41,1.41,0,0,0,.17.66,1.56,1.56,0,0,0,.86.59l1.44.58a3.52,3.52,0,0,1,1.89,1.44,4,4,0,0,1,.51,2,3.75,3.75,0,0,1-.27,1.43,4,4,0,0,1-.76,1.16,3.33,3.33,0,0,1-1.15.79,3.74,3.74,0,0,1-1.47.29,3.49,3.49,0,0,1-2.49-.94,3.34,3.34,0,0,1-.82-1.14,3.88,3.88,0,0,1-.33-1.59h2.3a2.24,2.24,0,0,0,.35.93,1.06,1.06,0,0,0,1,.44,1.47,1.47,0,0,0,.95-.35,1.19,1.19,0,0,0,.42-1,1.41,1.41,0,0,0-.27-.87,2,2,0,0,0-1-.62l-1.17-.43a4,4,0,0,1-1.81-1.29,3.29,3.29,0,0,1-.66-2.07,3.43,3.43,0,0,1,1.08-2.57,3.11,3.11,0,0,1,1.12-.73,3.83,3.83,0,0,1,1.4-.26,3.54,3.54,0,0,1,1.38.27,3.15,3.15,0,0,1,1.09.74,3.69,3.69,0,0,1,.72,1.14,3.88,3.88,0,0,1,.26,1.41Z"/><path class="cls-1" d="M73.19,810a4.31,4.31,0,0,1,.36-1.82,3.82,3.82,0,0,1,1-1.32,3.9,3.9,0,0,1,1.3-.77,4.35,4.35,0,0,1,4.29.77A4,4,0,0,1,81,808.2a4.31,4.31,0,0,1,.36,1.82v.86H79V810a1.63,1.63,0,0,0-.5-1.31,1.81,1.81,0,0,0-2.32,0,1.63,1.63,0,0,0-.5,1.31v9a1.62,1.62,0,0,0,.5,1.31,1.81,1.81,0,0,0,2.32,0A1.62,1.62,0,0,0,79,819v-3.21H77v-2.16h4.39V819a4.33,4.33,0,0,1-.36,1.85,3.8,3.8,0,0,1-.93,1.27,4.14,4.14,0,0,1-1.33.8,4.34,4.34,0,0,1-3,0,3.81,3.81,0,0,1-1.3-.8,3.62,3.62,0,0,1-1-1.27,4.33,4.33,0,0,1-.36-1.85Z"/><path class="cls-1" d="M83.27,806h2.44v13.65a1.33,1.33,0,0,0,.26,1,1.55,1.55,0,0,0,.94.33v2.3a7.72,7.72,0,0,1-1.51-.13,2.58,2.58,0,0,1-1.15-.52,2.24,2.24,0,0,1-.73-1,4.93,4.93,0,0,1-.25-1.74Z"/><path class="cls-1" d="M87.66,815a9.65,9.65,0,0,1,.09-1.37,3.56,3.56,0,0,1,.36-1.1,3.31,3.31,0,0,1,1.24-1.28,4.22,4.22,0,0,1,3.91,0,3.31,3.31,0,0,1,1.24,1.28,3.56,3.56,0,0,1,.36,1.1A9.65,9.65,0,0,1,95,815v4a9.5,9.5,0,0,1-.09,1.36,3.62,3.62,0,0,1-.36,1.11,3.29,3.29,0,0,1-1.24,1.27,4.22,4.22,0,0,1-3.91,0,3.29,3.29,0,0,1-1.24-1.27,3.62,3.62,0,0,1-.36-1.11,9.5,9.5,0,0,1-.09-1.36Zm2.45,4.39a1.46,1.46,0,0,0,.32,1,1.12,1.12,0,0,0,.88.35,1.1,1.1,0,0,0,.87-.35,1.46,1.46,0,0,0,.33-1V814.6a1.46,1.46,0,0,0-.33-1,1.14,1.14,0,0,0-.87-.35,1.16,1.16,0,0,0-.88.35,1.46,1.46,0,0,0-.32,1Z"/><path class="cls-1" d="M101.19,814.32a1.23,1.23,0,0,0-.39-.94,1.27,1.27,0,0,0-.85-.31,1.07,1.07,0,0,0-.89.37,1.27,1.27,0,0,0-.31.85,1.4,1.4,0,0,0,.16.66,1.55,1.55,0,0,0,.87.59l1.44.58a3.46,3.46,0,0,1,1.88,1.44,4,4,0,0,1,.52,2,3.7,3.7,0,0,1-1,2.59,3.33,3.33,0,0,1-1.15.79,3.69,3.69,0,0,1-1.46.29,3.53,3.53,0,0,1-2.5-.94,3.32,3.32,0,0,1-.81-1.14,4,4,0,0,1-.34-1.59h2.3a2.39,2.39,0,0,0,.35.93,1.08,1.08,0,0,0,1,.44,1.44,1.44,0,0,0,.94-.35,1.19,1.19,0,0,0,.42-1,1.4,1.4,0,0,0-.26-.87,2.07,2.07,0,0,0-1-.62l-1.18-.43a4.05,4.05,0,0,1-1.81-1.29,3.29,3.29,0,0,1-.66-2.07,3.53,3.53,0,0,1,1.08-2.57,3.14,3.14,0,0,1,1.13-.73,3.74,3.74,0,0,1,1.39-.26,3.47,3.47,0,0,1,1.38.27,3.06,3.06,0,0,1,1.09.74,3.35,3.35,0,0,1,.72,1.14,3.69,3.69,0,0,1,.27,1.41Z"/><path class="cls-1" d="M109.83,823.08v-1.25h0a4.41,4.41,0,0,1-1,1,2.31,2.31,0,0,1-1.38.36,3,3,0,0,1-.87-.13,2.24,2.24,0,0,1-.85-.49,2.34,2.34,0,0,1-.67-1,4.67,4.67,0,0,1-.25-1.64,8.77,8.77,0,0,1,.17-1.81,2.91,2.91,0,0,1,.62-1.31,2.6,2.6,0,0,1,1.18-.76,6.29,6.29,0,0,1,1.9-.25h.26a1.18,1.18,0,0,1,.27,0l.28,0,.36,0v-1.27a1.92,1.92,0,0,0-.26-1,1.07,1.07,0,0,0-1-.41,1.45,1.45,0,0,0-.88.31,1.52,1.52,0,0,0-.51.92h-2.38a3.89,3.89,0,0,1,1.1-2.64,3.44,3.44,0,0,1,1.16-.76,4,4,0,0,1,1.51-.28,4.27,4.27,0,0,1,1.44.24,3.32,3.32,0,0,1,1.18.72,3.63,3.63,0,0,1,.76,1.2,4.35,4.35,0,0,1,.29,1.68v8.48Zm0-5.24a4.92,4.92,0,0,0-.67-.07,2.49,2.49,0,0,0-1.36.37,1.52,1.52,0,0,0-.56,1.36,1.77,1.77,0,0,0,.34,1.13,1.1,1.1,0,0,0,.93.43,1.2,1.2,0,0,0,1-.41,1.67,1.67,0,0,0,.35-1.15Z"/><path class="cls-1" d="M114.08,823.08V810.91h2.45v1.29a7.27,7.27,0,0,1,1.46-1.05,3.69,3.69,0,0,1,1.78-.39v2.6a1.93,1.93,0,0,0-.75-.15,3.17,3.17,0,0,0-.82.13,2.16,2.16,0,0,0-.81.45,2.43,2.43,0,0,0-.62.81,2.93,2.93,0,0,0-.24,1.25v7.23Z"/><path class="cls-1" d="M120.75,808.44V806h2.45v2.45Zm0,14.64V810.91h2.45v12.17Z"/><path class="cls-1" d="M125,815a8.32,8.32,0,0,1,.1-1.37,3.1,3.1,0,0,1,.36-1.1,3.29,3.29,0,0,1,1.23-1.28,3.77,3.77,0,0,1,2-.48,3.71,3.71,0,0,1,1.95.48,3.31,3.31,0,0,1,1.24,1.28,3.1,3.1,0,0,1,.36,1.1,9.57,9.57,0,0,1,.1,1.37v4a9.43,9.43,0,0,1-.1,1.36,3.15,3.15,0,0,1-.36,1.11,3.29,3.29,0,0,1-1.24,1.27,3.71,3.71,0,0,1-1.95.48,3.77,3.77,0,0,1-2-.48,3.26,3.26,0,0,1-1.23-1.27,3.15,3.15,0,0,1-.36-1.11A8.19,8.19,0,0,1,125,819Zm2.45,4.39a1.5,1.5,0,0,0,.32,1,1.12,1.12,0,0,0,.88.35,1.09,1.09,0,0,0,.87-.35,1.46,1.46,0,0,0,.33-1V814.6a1.46,1.46,0,0,0-.33-1,1.12,1.12,0,0,0-.87-.35,1.16,1.16,0,0,0-.88.35,1.5,1.5,0,0,0-.32,1Z"/><path class="cls-1" d="M137.53,810.91h2.59l1.68,7.58h0l1.65-7.58H146l-3.5,14.28a4.26,4.26,0,0,1-.54,1.34,3.53,3.53,0,0,1-.8.87,2.74,2.74,0,0,1-1,.46,4.17,4.17,0,0,1-1.06.14h-.68v-2.31H139a1.93,1.93,0,0,0,.62-.09,1,1,0,0,0,.48-.44,4,4,0,0,0,.36-.94c.11-.41.24-1,.38-1.7Z"/><path class="cls-1" d="M73.19,848.08V831h2.44v6h.05a2.92,2.92,0,0,1,1-.92,2.53,2.53,0,0,1,1.29-.33,2.56,2.56,0,0,1,1.38.32,2.51,2.51,0,0,1,.8.79,2.27,2.27,0,0,1,.31,1,17.55,17.55,0,0,1,.08,1.94v4.63a11.16,11.16,0,0,1-.1,1.61,3.25,3.25,0,0,1-.31,1A2.23,2.23,0,0,1,78,848.22a2.28,2.28,0,0,1-1.39-.36,6.44,6.44,0,0,1-.94-.89v1.11Zm4.87-8.43a2.07,2.07,0,0,0-.25-1,1,1,0,0,0-1-.43,1.18,1.18,0,0,0-.88.37,1.36,1.36,0,0,0-.35.95v4.73a1.71,1.71,0,0,0,.34,1.09,1.08,1.08,0,0,0,.89.42,1,1,0,0,0,.91-.45,2.27,2.27,0,0,0,.29-1.2Z"/><path class="cls-1" d="M82.52,833.44V831H85v2.45Zm0,14.64V835.91H85v12.17Z"/><path class="cls-1" d="M87,848.08V831h2.44v6h0a2.92,2.92,0,0,1,1-.92,2.53,2.53,0,0,1,1.29-.33,2.56,2.56,0,0,1,1.38.32,2.51,2.51,0,0,1,.8.79,2.27,2.27,0,0,1,.31,1,17.55,17.55,0,0,1,.08,1.94v4.63a11.16,11.16,0,0,1-.1,1.61,3.25,3.25,0,0,1-.31,1,2.23,2.23,0,0,1-2.14,1.15,2.28,2.28,0,0,1-1.39-.36,6.44,6.44,0,0,1-.94-.89v1.11Zm4.87-8.43a2.07,2.07,0,0,0-.25-1,1,1,0,0,0-1-.43,1.18,1.18,0,0,0-.88.37,1.36,1.36,0,0,0-.35.95v4.73a1.71,1.71,0,0,0,.34,1.09,1.08,1.08,0,0,0,.89.42,1,1,0,0,0,.91-.45,2.27,2.27,0,0,0,.29-1.2Z"/><path class="cls-1" d="M96.18,831h2.45v13.65a1.34,1.34,0,0,0,.25,1,1.58,1.58,0,0,0,1,.33v2.3a7.83,7.83,0,0,1-1.52-.13,2.64,2.64,0,0,1-1.15-.52,2.24,2.24,0,0,1-.73-1,4.93,4.93,0,0,1-.25-1.74Z"/><path class="cls-1" d="M100.79,833.44V831h2.44v2.45Zm0,14.64V835.91h2.44v12.17Z"/><path class="cls-1" d="M105,840a8.32,8.32,0,0,1,.1-1.37,3.1,3.1,0,0,1,.36-1.1,3.31,3.31,0,0,1,1.24-1.28,3.71,3.71,0,0,1,2-.48,3.77,3.77,0,0,1,2,.48,3.29,3.29,0,0,1,1.23,1.28,3.1,3.1,0,0,1,.36,1.1,8.32,8.32,0,0,1,.1,1.37v4a8.19,8.19,0,0,1-.1,1.36,3.15,3.15,0,0,1-.36,1.11,3.26,3.26,0,0,1-1.23,1.27,3.77,3.77,0,0,1-2,.48,3.71,3.71,0,0,1-2-.48,3.29,3.29,0,0,1-1.24-1.27,3.15,3.15,0,0,1-.36-1.11A8.19,8.19,0,0,1,105,844Zm2.45,4.39a1.46,1.46,0,0,0,.33,1,1.09,1.09,0,0,0,.87.35,1.12,1.12,0,0,0,.88-.35,1.5,1.5,0,0,0,.32-1V839.6a1.5,1.5,0,0,0-.32-1,1.16,1.16,0,0,0-.88-.35,1.12,1.12,0,0,0-.87.35,1.46,1.46,0,0,0-.33,1Z"/><path class="cls-1" d="M116.58,849.49a1.33,1.33,0,0,0,.35.82,1.17,1.17,0,0,0,.94.38,1,1,0,0,0,.87-.37,1.64,1.64,0,0,0,.26-1V847h0a3,3,0,0,1-1,.93,2.65,2.65,0,0,1-1.31.32,2.19,2.19,0,0,1-2.13-1.15,3,3,0,0,1-.31-1,9.88,9.88,0,0,1-.1-1.61v-4.63a18.17,18.17,0,0,1,.07-1.94,2.32,2.32,0,0,1,1.13-1.8,2.41,2.41,0,0,1,1.37-.32,3,3,0,0,1,.78.1,2.18,2.18,0,0,1,.58.26,2.68,2.68,0,0,1,.48.4l.46.49v-1.1h2.45v13.65a4.25,4.25,0,0,1-.2,1.26,3,3,0,0,1-.67,1.14,3.25,3.25,0,0,1-1.15.86,4,4,0,0,1-1.65.32,4,4,0,0,1-1.16-.18,3.08,3.08,0,0,1-1.1-.61,3.5,3.5,0,0,1-.9-1.09,4.83,4.83,0,0,1-.49-1.77Zm0-5.16a1.94,1.94,0,0,0,.25,1,1,1,0,0,0,1,.43,1.13,1.13,0,0,0,.87-.37,1.34,1.34,0,0,0,.35-.95v-4.73a1.73,1.73,0,0,0-.33-1.09,1.09,1.09,0,0,0-.89-.42,1,1,0,0,0-.91.46,2.13,2.13,0,0,0-.29,1.2Z"/><path class="cls-1" d="M123.46,848.08V835.91h2.45v1.29a7.61,7.61,0,0,1,1.47-1.05,3.68,3.68,0,0,1,1.77-.39v2.6a1.92,1.92,0,0,0-.74-.15,3.24,3.24,0,0,0-.83.13,2.12,2.12,0,0,0-.8.45,2.33,2.33,0,0,0-.63.81,2.93,2.93,0,0,0-.24,1.25v7.23Z"/><path class="cls-1" d="M134.62,848.08v-1.25h0a4.44,4.44,0,0,1-1,1,2.26,2.26,0,0,1-1.37.36,3,3,0,0,1-.88-.13,2.4,2.4,0,0,1-1.51-1.47,4.43,4.43,0,0,1-.26-1.64,8.77,8.77,0,0,1,.17-1.81,2.82,2.82,0,0,1,.63-1.31,2.62,2.62,0,0,1,1.17-.76,6.29,6.29,0,0,1,1.9-.25h.26a1.12,1.12,0,0,1,.27,0l.28,0,.36,0v-1.27a1.83,1.83,0,0,0-.26-1,1.07,1.07,0,0,0-1-.41,1.45,1.45,0,0,0-.88.31,1.52,1.52,0,0,0-.51.92h-2.38a3.9,3.9,0,0,1,1.11-2.64,3.39,3.39,0,0,1,1.15-.76,4,4,0,0,1,1.51-.28,4.27,4.27,0,0,1,1.44.24,3.32,3.32,0,0,1,1.18.72,3.47,3.47,0,0,1,.76,1.2,4.35,4.35,0,0,1,.29,1.68v8.48Zm0-5.24a4.92,4.92,0,0,0-.67-.07,2.43,2.43,0,0,0-1.35.37,1.5,1.5,0,0,0-.57,1.36,1.77,1.77,0,0,0,.34,1.13,1.1,1.1,0,0,0,.93.43,1.24,1.24,0,0,0,1-.41,1.72,1.72,0,0,0,.34-1.15Z"/><path class="cls-1" d="M139.18,848.08V837.83H138v-1.92h1.2v-1.66a3.72,3.72,0,0,1,.27-1.5,2.7,2.7,0,0,1,.72-1,2.47,2.47,0,0,1,1-.57,3.85,3.85,0,0,1,1.17-.17h1.13v2.3h-1.11q-.72,0-.72.84v1.78h1.83v1.92h-1.83v10.25Z"/><path class="cls-1" d="M143.86,834.3l2.16-3.38h2.6l-3.17,3.38Zm.34,13.78V835.91h2.45v12.17Z"/><path class="cls-1" d="M153.3,848.08v-1.25h-.05a4.63,4.63,0,0,1-1,1,2.31,2.31,0,0,1-1.38.36,3,3,0,0,1-.88-.13,2.24,2.24,0,0,1-.85-.49,2.42,2.42,0,0,1-.66-1,4.45,4.45,0,0,1-.25-1.64,8.82,8.82,0,0,1,.16-1.81,2.92,2.92,0,0,1,.63-1.31,2.62,2.62,0,0,1,1.17-.76,6.29,6.29,0,0,1,1.9-.25h.26a1.12,1.12,0,0,1,.27,0l.29,0,.36,0v-1.27a1.84,1.84,0,0,0-.27-1,1,1,0,0,0-1-.41,1.4,1.4,0,0,0-.87.31,1.48,1.48,0,0,0-.52.92H148.3a4,4,0,0,1,1.11-2.64,3.39,3.39,0,0,1,1.15-.76,4,4,0,0,1,1.51-.28,4.27,4.27,0,0,1,1.44.24,3.32,3.32,0,0,1,1.18.72,3.65,3.65,0,0,1,.77,1.2,4.55,4.55,0,0,1,.28,1.68v8.48Zm0-5.24a5.21,5.21,0,0,0-.68-.07,2.46,2.46,0,0,0-1.35.37,1.5,1.5,0,0,0-.57,1.36,1.83,1.83,0,0,0,.34,1.13,1.11,1.11,0,0,0,.94.43,1.22,1.22,0,0,0,1-.41,1.72,1.72,0,0,0,.35-1.15Z"/></g></g></g></svg>