<svg xmlns="http://www.w3.org/2000/svg" xmlns:xlink="http://www.w3.org/1999/xlink" viewBox="0 0 1016.12 650.07"><defs><style>.cls-1{fill:#f7931d;}.cls-2{fill:#a7a9ac;}.cls-3{fill:#c63d96;}.cls-4{fill:#1b2f72;}.cls-5{fill:#fff8f3;}.cls-6{fill:#aa7d5f;}.cls-7{clip-path:url(#clip-path);}.cls-8{fill:#fff;}.cls-9{fill:#424242;}.cls-10{fill:#cadb2a;}.cls-11{fill:#ee3a4f;}</style><clipPath id="clip-path"><path class="cls-1" d="M778.86,195.88q-49.64,19.58-99.53,38.49c-32.39-11.37-67.88-22-103-24.44a184,184,0,0,0-44.8,2.06,138,138,0,0,0-50.13,19.12A93.63,93.63,0,0,0,455,256.21c18.82,17.44,38.86,33.6,59,49.29,2.74-7.55,11.33-12.87,21.12-16.25a88.72,88.72,0,0,1,26.58-4.69c1.41,0,2.83,0,4.25,0,25,.54,50.64,7.27,74,15.33,12.93,4.46,28.4,5.67,42.24,6.15,12,.41,126.93-37.11,126.4-38.44C799,243.59,789.21,219.64,778.86,195.88Z"/></clipPath></defs><g id="Capa_2" data-name="Capa 2"><g id="APERTURA"><g id="MUÑECA"><path id="LLAVE" class="cls-2" d="M1004.93,232.17,975.4,71.63A39.53,39.53,0,0,0,962.91,0l4.54,24.65A17,17,0,1,1,934,30.81L929.65,7.23a39.54,39.54,0,0,0,19.84,70.53L978.77,237a12.43,12.43,0,0,0,14.43,9.95l1.78-.33A12.43,12.43,0,0,0,1004.93,232.17Z"/><path class="cls-3" d="M683.22,206.82c-.8,21.42,21,65.19-6.58,79.23s-47.17,46.13-77.36,56.69c-7.09,2.48-14.32,5.17-19.77,9.25-6,4.44-9.17,10-13,15.29-15,20.51-42.34,37.89-73.3,46.61-14.85,4.19-30.7,6.57-44.27,12.87-11.43,5.32-20.21,13-30.37,19.45-16.46,10.51-36.91,18-57.78,21.26,9.32-24.52-3.12-48.07-21.3-67s-42.1-34.78-58.88-54.34c-5-5.89-9.49-12.24-10.29-19.42-1.32-11.82,7.29-24.23,9.89-36.41,8.18-38.25-42.67-66.18-38.6-104.25,1.34-12.51,8.61-25.07,11.84-37.64a56,56,0,0,0-9.89-48.83c30.51-3.86,61,.1,83.94,10.88,19.56,9.21,34.15,23.31,57.65,28.08C416.52,145,456,133,486.76,140.25,514,146.66,528.88,167,557.85,170.6c12.63,1.58,26.47-.28,39.6.09,36.7,1,63.09,18.81,85.77,36.13Z"/><path d="M470.85,397.25c-11.18-1.71-25.42,1.17-34.47,8.26-9.72,7.61-17.75,18.5-19.11,31.14-1.24,11.46.3,25.47,8.26,34.47a198.9,198.9,0,0,0,20.71,20.26c13.69-29.32,28.42-58,43.48-86.38A43.13,43.13,0,0,0,470.85,397.25Z"/><path class="cls-4" d="M517.23,427.87a128.58,128.58,0,0,1-21-17.61l.75.81a61.69,61.69,0,0,0-7.25-6.07c-15.06,28.39-29.79,57.06-43.48,86.38a198.73,198.73,0,0,0,70.19,38.26,309.88,309.88,0,0,0,31.35,7.93q6-46.32,12.29-92.66C544.69,441.79,529.5,436.21,517.23,427.87Z"/><path class="cls-4" d="M628.65,537.68c20.83-4.94,40.42-11.83,57.87-24.78a132.89,132.89,0,0,0,40.61-49.5c15-31.22,16.09-68.43,4.86-101.08-13.47-39.17-44.44-68.23-80.57-87-28.56-14.82-59.89-20-91.69-20.21-6.1,0-13,2.66-19,6.44-47.36,8.26-94.63,17.1-141.87,26q-47.46,9-94.88,18.13c-.66,31.69,0,63.49.72,95.32l8.86-1.72q86.94-16.77,174-32.88c30-5.5,60-10.92,90-16l1.71-.32c1,.11,2,.24,2.93.38,17.81,2.58,38.55,11.53,50.36,25.72,14.84,17.83,20,42.86-.38,59.31-12.14,9.81-28.58,12.6-44.19,12.38a153,153,0,0,1-27.89-3q-6.23,46.33-12.29,92.66C574.47,542.81,602,544,628.65,537.68Z"/><path d="M217.53,322.53c-12.25,2.41-23,6.91-31.19,16.84-7.43,9-12.26,23.26-10.46,35s7,23.81,16.84,31.19c8.79,6.61,20.51,11.88,31.83,10.89v-95.3Z"/><path class="cls-4" d="M304.67,401.06c-.71-31.83-1.38-63.63-.72-95.32q-28.06,5.42-56.13,10.87l-23.27,4.55v95.3a28.56,28.56,0,0,0,3.18-.43Q266.18,408.47,304.67,401.06Z"/><path d="M176.65,362a54.42,54.42,0,0,1-8.55,108.5Z"/><path d="M423.42,419.54a54.41,54.41,0,1,1-52.86,95.13Z"/><path class="cls-5" d="M568.64,350.24a172.19,172.19,0,0,1-26.31-8.62,730.63,730.63,0,0,0-30.24,68.5c2.8,1.26,5.61,2.45,8.44,3.55A235.12,235.12,0,0,0,551,423a37.23,37.23,0,0,0,45.88-34.65l0-.75A37,37,0,0,0,568.64,350.24Z"/><path class="cls-6" d="M519.17,325.62c-6-8-7.12-14.63-5.13-20.12-20.17-15.69-40.21-31.85-59-49.29-15.18,21.44-21.26,48.89-14.79,75.27,8.9,36.27,38.65,63.56,71.87,78.64a730.63,730.63,0,0,1,30.24-68.5c-2.41-1-4.79-2.06-7.15-3.18A43.15,43.15,0,0,1,519.17,325.62Z"/><path d="M452.91,285.25a16.74,16.74,0,0,0-.44,19c1.61,2.47,5.59.17,4-2.32a12.27,12.27,0,0,1,.44-14.31c1.75-2.4-2.24-4.69-4-2.33Z"/><path class="cls-1" d="M778.86,195.88q-49.64,19.58-99.53,38.49c-32.39-11.37-67.88-22-103-24.44a184,184,0,0,0-44.8,2.06,138,138,0,0,0-50.13,19.12A93.63,93.63,0,0,0,455,256.21c18.82,17.44,38.86,33.6,59,49.29,2.74-7.55,11.33-12.87,21.12-16.25a88.72,88.72,0,0,1,26.58-4.69c1.41,0,2.83,0,4.25,0,25,.54,50.64,7.27,74,15.33,12.93,4.46,28.4,5.67,42.24,6.15,12,.41,126.93-37.11,126.4-38.44C799,243.59,789.21,219.64,778.86,195.88Z"/><g class="cls-7"><path class="cls-4" d="M598.07,302.61a379.53,379.53,0,0,1,5-104.46c2.76-14.48-19.41-20.63-22.19-6.08a401.39,401.39,0,0,0-5.86,110.37c1.28,14.65,24.3,14.91,23,.17Z"/><path class="cls-4" d="M749.58,329.32a1875.71,1875.71,0,0,1-6.72-193.17c.24-14.83-22.76-15-23-.17a1875.52,1875.52,0,0,0,6.72,193.17c1.27,14.65,24.28,14.92,23,.17Z"/></g><path class="cls-6" d="M920,138.65,916.79,140l-6.52,2.73Z"/><path class="cls-6" d="M778.86,195.88c10.35,23.76,20.16,47.71,29.76,71.76q47.25-18.72,94.28-38c-9.25-24.13-18.14-48.4-27.06-72.72Q827.48,176.69,778.86,195.88Z"/><path class="cls-5" d="M995.94,173.81C995,150,966.11,143,941.42,143c-5.21,0,.33-12.65-4.54-10.81a77.59,77.59,0,0,0-10,3.54L916.79,140l3.16-1.31-9.68,4,6.52-2.73q-20.44,8.52-40.95,16.91c8.92,24.32,17.81,48.59,27.06,72.72C914.46,224.84,996.84,197.73,995.94,173.81Z"/><path d="M705.9,182.6C686,193.87,676.22,220.23,652.6,225c-12.78,2.55-25.67-2.57-38.14-6.36a195.26,195.26,0,0,0-65.08-8.24c-2.83.13-5.78.29-8.38-.85-13.74-6.05-.71-21.57,7-25.39,14.61-7.21,30.56-18.39,46.55-7.88,5.87,3.86,16.3,15.3,24,9.33,2-1.56,3.34-3.85,4.67-6s2.8-4.42,5-5.75c2.71-1.64,6.1-1.65,9.23-1.21,5.69.81,11.38,1.45,17.08,2.22,2.64.36,5.74.59,7.55-1.38a8.34,8.34,0,0,0,1.39-2.47c1.07-2.56,2.92-5.95,2.92-8.83,2.84-8.43,12.4-9.3,20.05-8.44,3.22.36,6.79.75,9.42-1.16,4.61-3.35,2.87-10.87,6-15.61A8.49,8.49,0,0,1,717,144.42c6.39,3,10.43,2.93,14-4.28,2.41-4,4.2-8.55,7.79-11.53s9.91-3.52,12.64.44c2.3,3.32.9,7.68.18,11.58s.3,9.16,4.25,9.93c1.67.33,3.32-.32,4.93-.75,4-1.05,8.61-.66,11.86,2s4.43,7.9,1.8,11-7.74,2.94-12,2.39l-11.92-1.51c-3.61-.46-8.56.05-8.91,3.62-.31,3.14,3.63,5.6,3.46,8.76-.19,3.44-4.77,4.47-8.23,4-8.94-1.11-18.91-3.49-27.43.64C708.23,181.33,707.06,182,705.9,182.6Z"/><path class="cls-5" d="M734.42,210.67s2.77-13.57-2.22-22.19L703.57,199.3S716.44,216.41,734.42,210.67Z"/><path class="cls-6" d="M703.57,199.3c10.43-2.29,20.75-3.85,29.77-9-4.64-14.92-16.8-24.55-22.73-28.49a4.54,4.54,0,0,0-5.87.7l-12.25,13.3c-.12-.38-.24-.75-.4-1.13a12.36,12.36,0,1,0-14,16.75l-28.42,30.83c-16.5,17.92-6.69,47.36,17.37,51.17.66.11,1.33.2,2,.27,14.17,1.59,27.45-7.27,32-20.78l12.09-35.78,12.27,5.78a4.58,4.58,0,0,0,6.19-2.48,53.39,53.39,0,0,0,2.82-9.74C722.91,211.1,711.8,208,703.57,199.3Z"/><path d="M703.45,182.36a8.7,8.7,0,0,1,3.6-2.29,8.59,8.59,0,0,1,4.12.63c2.84.89,4.05-3.55,1.23-4.43a12.3,12.3,0,0,0-6.57-.63,13.87,13.87,0,0,0-5.63,3.47c-2.23,1.95,1,5.2,3.25,3.25Z"/><path d="M676.78,176.59l7.62,7.34c2.13,2,5.39-1.19,3.25-3.25L680,173.34c-2.13-2.05-5.39,1.19-3.25,3.25Z"/><path d="M718.93,178.57q6.62,6.47,12.79,13.33c.33-1.28.67-2.57,1-3.85l-9.29,2.78c-2.83.84-1.63,5.28,1.22,4.43l9.29-2.77a2.33,2.33,0,0,0,1-3.85q-6.18-6.85-12.78-13.32c-2.12-2.07-5.38,1.18-3.26,3.25Z"/><path class="cls-8" d="M294.44,158.56c21.31,22.94,50.21,33.64,81.12,34.35,17.52.41,35.14-1.41,52.62.45,19.91,2.11,36.34,10.82,53.07,21.23,2.52,1.57,4.83-2.41,2.32-4-13.83-8.61-27.84-16.88-44-20.17-16.49-3.36-33.4-2.45-50.11-2.16-17.13.3-34.24-.27-50.58-5.94a101.88,101.88,0,0,1-41.2-27c-2-2.18-5.26,1.08-3.25,3.25Z"/><path class="cls-8" d="M292.44,218.34c10.36,16.46,30.34,18.44,48.11,18.65,3,0,3-4.57,0-4.6-16-.19-34.72-1.41-44.13-16.37-1.58-2.5-5.56-.19-4,2.32Z"/><path class="cls-8" d="M373.4,237.13a62.47,62.47,0,0,1,26.26,4.61c2.74,1.12,3.93-3.33,1.22-4.43a65.3,65.3,0,0,0-27.48-4.78c-3,.11-3,4.72,0,4.6Z"/><path class="cls-8" d="M208.49,378.25A48.63,48.63,0,0,1,222,427.89c-.84,2.84,3.6,4.05,4.44,1.22A53.27,53.27,0,0,0,211.74,375c-2.16-2-5.42,1.23-3.25,3.26Z"/><path class="cls-8" d="M445.84,495.36a49.2,49.2,0,0,0-9-55.54c-2.06-2.13-5.31,1.13-3.25,3.26a44.5,44.5,0,0,1,8.27,50c-1.26,2.66,2.7,5,4,2.32Z"/><path d="M47.2,162.76H196.65c3,0,3-4.6,0-4.6H47.2c-3,0-3,4.6,0,4.6Z"/><path d="M145,205.82h68.19c3,0,3-4.6,0-4.6H145c-3,0-3,4.6,0,4.6Z"/><path d="M794,66.81H850.3c3,0,3-4.6,0-4.6H794c-3,0-3,4.6,0,4.6Z"/><path d="M2.22,357.44h105.2c3,0,3-4.6,0-4.6H2.22c-3,0-3,4.6,0,4.6Z"/><path d="M271.41,600.93H391.57c3,0,3-4.61,0-4.61H271.41c-3,0-3,4.61,0,4.61Z"/><path d="M164.89,601.7H225c3,0,3-4.6,0-4.6H164.89c-3,0-3,4.6,0,4.6Z"/><path class="cls-5" d="M920,137l9-21.74c2.29-5.92,9.94-11.64,17.69-9.71,7.5,1.88,9.1,10.24,6.18,17.79l-5.63,13.8,4.43-2.07,21.85-11.39c14.35-7.1,22.5-2.91,25.22,2.29h0c3.64,9.58-6.73,13.89-6.73,13.89l-7,2.74c10-4.46,19.25-6.65,22.12.41l.38.73c2.73,4.38-.55,8.56-5.51,13.24,5.65-.89,10.2.52,12.21,3.8,5.28,8.59-.57,16.95-12.06,22.94L932.24,218l-30.4-71.21Z"/><path d="M991.73,136.07c-10.49,5.39-21.79,8.5-32.28,13.89-2.64,1.35-.31,5.32,2.32,4,10.49-5.38,21.79-8.5,32.28-13.89,2.64-1.35.31-5.32-2.32-4Z"/><path d="M1001,153.89c-10,5.11-20.62,9.05-30.65,14.17-2.64,1.34-.31,5.31,2.32,4,10-5.11,20.63-9.06,30.66-14.17,2.63-1.35.31-5.32-2.33-4Z"/><path d="M950.38,113.67l-22.63-.73c-3-.1-3,4.5,0,4.6l22.63.73c3,.09,3-4.51,0-4.6Z"/><path d="M947.12,134.33c-2.81,8.8,2.34,17.87,11.91,18.25,3,.12,3-4.48,0-4.6-6.66-.26-9.32-6.63-7.47-12.43.9-2.82-3.54-4-4.44-1.22Z"/><path d="M958.62,150.78c-7.54,10.21,1.15,22.22,12.9,21.56l-1.62-3.92c-9.06,10.14-3.1,27.5,11.64,25.89,2.92-.32,3-4.92,0-4.6-10.41,1.13-15.08-10.54-8.39-18,1.24-1.39.48-4-1.63-3.93-8.26.47-14.4-7.23-8.93-14.63,1.76-2.39-2.23-4.68-4-2.33Z"/><path d="M949.18,135.28a167.91,167.91,0,0,1,16.17,27.19c4.68,10,8,20.47,13.53,30,1.49,2.56,5.47.25,4-2.32-5.54-9.54-8.88-20.06-13.54-30A166.48,166.48,0,0,0,953.15,133c-1.72-2.38-5.71-.08-4,2.32Z"/><path d="M939.12,143a53.89,53.89,0,0,1-6.82,34.75c-1.48,2.56,2.49,4.88,4,2.32A57.94,57.94,0,0,0,943.72,143c-.39-2.89-5-2.93-4.6,0Z"/><rect class="cls-9" x="457.5" y="478.14" width="265.76" height="171.93" rx="34.41"/><path d="M556.39,482.13c-5.22-24.76,21.59-42.61,44-39.31,20.77,3.06,28.12,24.25,28,42.73,0,11.12,17.21,11.23,17.26.13.11-29.22-15.35-57.92-47.06-60.3-33.83-2.53-66.25,26.23-58.89,61.21,2.29,10.87,18.95,6.37,16.67-4.46Z"/><path class="cls-2" d="M490.58,577.78V499.15c0-3.45-5.37-3.46-5.37,0v78.63c0,3.45,5.37,3.46,5.37,0Z"/><rect class="cls-10" x="477.96" y="565.1" width="21.03" height="70.96" rx="10.52"/><path class="cls-2" d="M651.46,582.66q11.46-27.43,22.9-54.87c2-4.78-5.8-6.86-7.77-2.14L643.7,580.52c-2,4.78,5.8,6.86,7.76,2.14Z"/><path class="cls-2" d="M674.5,526.72v-20.1c0-5.18-8-5.19-8,0v20.1c0,5.18,8,5.19,8,0Z"/><path class="cls-2" d="M647.11,507.22v19.59c0,5.18,8,5.19,8,0V507.22c0-5.18-8-5.19-8,0Z"/><path class="cls-2" d="M647.1,528.75A262.71,262.71,0,0,0,677,578.27c3.12,4.05,10.11,0,7-4.07a262.6,262.6,0,0,1-29.94-49.52c-2.18-4.69-9.13-.6-6.95,4.07Z"/><path class="cls-11" d="M622.24,626.91l2.88,1.5a9.74,9.74,0,0,0,13.1-4.13l21.85-42a9.75,9.75,0,0,0-4.14-13.1l-2.88-1.5A9.74,9.74,0,0,0,640,571.82l-21.85,42A9.72,9.72,0,0,0,622.24,626.91Z"/><path class="cls-11" d="M705.52,625.75l-2.89,1.5a9.74,9.74,0,0,1-13.09-4.13l-21.85-42A9.73,9.73,0,0,1,671.82,568l2.89-1.5a9.74,9.74,0,0,1,13.09,4.13l21.85,42A9.74,9.74,0,0,1,705.52,625.75Z"/><path d="M661.27,553.12c6.9,0,6.92-10.73,0-10.73s-6.92,10.73,0,10.73Z"/><path class="cls-2" d="M532.4,606.56h-1c-3.85,0-7-2.43-7-5.39v-72c0-3,3.14-5.4,7-5.4h1c3.85,0,7,2.43,7,5.4v72C539.39,604.13,536.25,606.56,532.4,606.56Z"/><path class="cls-2" d="M554.2,519.5a22.32,22.32,0,1,1-32.58-19.82v13.53a9.61,9.61,0,1,0,19.21,0V499.06A22.3,22.3,0,0,1,554.2,519.5Z"/><path class="cls-2" d="M622.31,526.81c-.85,16-24.9,16.1-24.9,0s24-15.95,24.9,0c.37,6.87,11.11,6.92,10.74,0-.68-12.56-10.08-23.18-23.19-23.18a23.17,23.17,0,0,0-1,46.32c13.49.55,23.46-10.17,24.16-23.14C633.42,519.91,622.69,519.93,622.31,526.81Z"/><path d="M619.21,526.81c-.64,12-18.7,12.08-18.7,0s18.06-12,18.7,0c.16,3,4.76,3,4.6,0-.41-7.56-6-13.94-13.95-13.94a13.94,13.94,0,0,0-.63,27.86c8.14.36,14.16-6.09,14.58-13.92C624,523.86,619.37,523.86,619.21,526.81Z"/><path class="cls-2" d="M591.13,581.59c-.51,9.38-14.62,9.45-14.62,0s14.11-9.37,14.62,0c.37,6.87,11.1,6.92,10.73,0-.53-9.77-7.85-18-18-18a18,18,0,0,0-.69,36.05c10.46.46,18.19-8,18.73-18C602.23,574.69,591.5,574.71,591.13,581.59Z"/><path d="M588.08,581.59c-.3,5.46-8.52,5.51-8.52,0s8.22-5.46,8.52,0c.16,2.95,4.76,3,4.6,0-.26-4.8-3.85-8.86-8.86-8.86a8.85,8.85,0,0,0-.36,17.7c5.15.21,8.95-3.89,9.22-8.84C592.84,578.63,588.24,578.64,588.08,581.59Z"/><path class="cls-5" d="M630.76,377.45l16.16,15.62c4.48,4.12,6.13,12.28.46,17.46-5.49,5-14.22,2.88-19.93-2.38l-10.31-9.84-.23,4.22v44.89c0,10.53-5.15,19.14-11.43,19.14h-.87c-5.81,0-10.63-7.37-11.32-16.81-.7,9.44-5.52,16.81-11.33,16.81h-.87c-4.19,0-7.86-3.85-9.84-9.53-2,4.69-5.53,7.85-9.64,7.85-7.65,0-13.85-9.09-13.85-20.3l.08-79.47c0-5.88-2.6-16.73,3.28-16.73l17.52,1.86c9.81,0,38.44,7.65,46,13.9Z"/><path d="M595.3,454.07q0-24,0-47.91c0-3-4.6-3-4.6,0q0,24,0,47.91c0,3,4.6,3,4.6,0Z"/><path d="M572.62,454.94q0-23.55,0-47.11c0-2.95-4.6-3-4.6,0q0,23.57,0,47.11c0,3,4.6,3,4.6,0Z"/><path d="M547.94,457.07h66.9c3,0,3-4.6,0-4.6h-66.9c-3,0-3,4.6,0,4.6Z"/><path d="M636.25,410.73l11.88-17.06c1.7-2.44-2.29-4.74-4-2.32l-11.89,17.06c-1.69,2.44,2.29,4.74,4,2.32Z"/><path class="cls-2" d="M554.09,615.72a22.32,22.32,0,1,0-32.58,19.81V622a9.61,9.61,0,1,1,19.21,0v14.15A22.29,22.29,0,0,0,554.09,615.72Z"/></g></g></g></svg>